<svg xmlns="http://www.w3.org/2000/svg" xmlns:xlink="http://www.w3.org/1999/xlink" width="600" height="400" viewBox="0 0 2400 1600">
<defs>
  <clipPath id="clip160">
    <rect x="0" y="0" width="2400" height="1600"></rect>
  </clipPath>
</defs>
<path clip-path="url(#clip160)" d="
M0 1600 L2400 1600 L2400 0 L0 0  Z
  " fill="#ffffff" fill-rule="evenodd" fill-opacity="1"></path>
<defs>
  <clipPath id="clip161">
    <rect x="480" y="0" width="1681" height="1600"></rect>
  </clipPath>
</defs>
<path clip-path="url(#clip160)" d="
M112.177 1486.45 L2352.76 1486.45 L2352.76 47.2441 L112.177 47.2441  Z
  " fill="#ffffff" fill-rule="evenodd" fill-opacity="1"></path>
<defs>
  <clipPath id="clip162">
    <rect x="112" y="47" width="2242" height="1440"></rect>
  </clipPath>
</defs>
<polyline clip-path="url(#clip162)" style="stroke:#000000; stroke-width:2; stroke-opacity:0.1; fill:none" points="
  214.162,1486.45 214.162,47.2441 
  "></polyline>
<polyline clip-path="url(#clip162)" style="stroke:#000000; stroke-width:2; stroke-opacity:0.1; fill:none" points="
  553.597,1486.45 553.597,47.2441 
  "></polyline>
<polyline clip-path="url(#clip162)" style="stroke:#000000; stroke-width:2; stroke-opacity:0.1; fill:none" points="
  893.032,1486.45 893.032,47.2441 
  "></polyline>
<polyline clip-path="url(#clip162)" style="stroke:#000000; stroke-width:2; stroke-opacity:0.1; fill:none" points="
  1232.47,1486.45 1232.47,47.2441 
  "></polyline>
<polyline clip-path="url(#clip162)" style="stroke:#000000; stroke-width:2; stroke-opacity:0.1; fill:none" points="
  1571.9,1486.45 1571.9,47.2441 
  "></polyline>
<polyline clip-path="url(#clip162)" style="stroke:#000000; stroke-width:2; stroke-opacity:0.1; fill:none" points="
  1911.34,1486.45 1911.34,47.2441 
  "></polyline>
<polyline clip-path="url(#clip162)" style="stroke:#000000; stroke-width:2; stroke-opacity:0.1; fill:none" points="
  2250.77,1486.45 2250.77,47.2441 
  "></polyline>
<polyline clip-path="url(#clip160)" style="stroke:#000000; stroke-width:4; stroke-opacity:1; fill:none" points="
  112.177,1486.45 2352.76,1486.45 
  "></polyline>
<polyline clip-path="url(#clip160)" style="stroke:#000000; stroke-width:2; stroke-opacity:0.5; fill:none" points="
  112.177,47.2441 2352.76,47.2441 
  "></polyline>
<polyline clip-path="url(#clip160)" style="stroke:#000000; stroke-width:4; stroke-opacity:1; fill:none" points="
  214.162,1486.45 214.162,1469.18 
  "></polyline>
<polyline clip-path="url(#clip160)" style="stroke:#000000; stroke-width:4; stroke-opacity:1; fill:none" points="
  553.597,1486.45 553.597,1469.18 
  "></polyline>
<polyline clip-path="url(#clip160)" style="stroke:#000000; stroke-width:4; stroke-opacity:1; fill:none" points="
  893.032,1486.45 893.032,1469.18 
  "></polyline>
<polyline clip-path="url(#clip160)" style="stroke:#000000; stroke-width:4; stroke-opacity:1; fill:none" points="
  1232.47,1486.45 1232.47,1469.18 
  "></polyline>
<polyline clip-path="url(#clip160)" style="stroke:#000000; stroke-width:4; stroke-opacity:1; fill:none" points="
  1571.9,1486.45 1571.9,1469.18 
  "></polyline>
<polyline clip-path="url(#clip160)" style="stroke:#000000; stroke-width:4; stroke-opacity:1; fill:none" points="
  1911.34,1486.45 1911.34,1469.18 
  "></polyline>
<polyline clip-path="url(#clip160)" style="stroke:#000000; stroke-width:4; stroke-opacity:1; fill:none" points="
  2250.77,1486.45 2250.77,1469.18 
  "></polyline>
<path clip-path="url(#clip160)" d="M 0 0 M183.919 1530.29 L213.595 1530.29 L213.595 1534.23 L183.919 1534.23 L183.919 1530.29 Z" fill="#000000" fill-rule="evenodd" fill-opacity="1"></path><path clip-path="url(#clip160)" d="M 0 0 M224.498 1543.18 L232.136 1543.18 L232.136 1516.82 L223.826 1518.49 L223.826 1514.23 L232.09 1512.56 L236.766 1512.56 L236.766 1543.18 L244.405 1543.18 L244.405 1547.12 L224.498 1547.12 L224.498 1543.18 Z" fill="#000000" fill-rule="evenodd" fill-opacity="1"></path><path clip-path="url(#clip160)" d="M 0 0 M553.597 1515.64 Q549.986 1515.64 548.157 1519.2 Q546.352 1522.75 546.352 1529.87 Q546.352 1536.98 548.157 1540.55 Q549.986 1544.09 553.597 1544.09 Q557.231 1544.09 559.037 1540.55 Q560.865 1536.98 560.865 1529.87 Q560.865 1522.75 559.037 1519.2 Q557.231 1515.64 553.597 1515.64 M553.597 1511.93 Q559.407 1511.93 562.463 1516.54 Q565.541 1521.12 565.541 1529.87 Q565.541 1538.6 562.463 1543.21 Q559.407 1547.79 553.597 1547.79 Q547.787 1547.79 544.708 1543.21 Q541.652 1538.6 541.652 1529.87 Q541.652 1521.12 544.708 1516.54 Q547.787 1511.93 553.597 1511.93 Z" fill="#000000" fill-rule="evenodd" fill-opacity="1"></path><path clip-path="url(#clip160)" d="M 0 0 M883.414 1543.18 L891.053 1543.18 L891.053 1516.82 L882.742 1518.49 L882.742 1514.23 L891.006 1512.56 L895.682 1512.56 L895.682 1543.18 L903.321 1543.18 L903.321 1547.12 L883.414 1547.12 L883.414 1543.18 Z" fill="#000000" fill-rule="evenodd" fill-opacity="1"></path><path clip-path="url(#clip160)" d="M 0 0 M1227.12 1543.18 L1243.44 1543.18 L1243.44 1547.12 L1221.49 1547.12 L1221.49 1543.18 Q1224.16 1540.43 1228.74 1535.8 Q1233.35 1531.15 1234.53 1529.81 Q1236.77 1527.28 1237.65 1525.55 Q1238.55 1523.79 1238.55 1522.1 Q1238.55 1519.34 1236.61 1517.61 Q1234.69 1515.87 1231.59 1515.87 Q1229.39 1515.87 1226.93 1516.63 Q1224.5 1517.4 1221.73 1518.95 L1221.73 1514.23 Q1224.55 1513.09 1227 1512.51 Q1229.46 1511.93 1231.49 1511.93 Q1236.86 1511.93 1240.06 1514.62 Q1243.25 1517.31 1243.25 1521.8 Q1243.25 1523.93 1242.44 1525.85 Q1241.66 1527.74 1239.55 1530.34 Q1238.97 1531.01 1235.87 1534.23 Q1232.77 1537.42 1227.12 1543.18 Z" fill="#000000" fill-rule="evenodd" fill-opacity="1"></path><path clip-path="url(#clip160)" d="M 0 0 M1576.15 1528.49 Q1579.51 1529.2 1581.38 1531.47 Q1583.28 1533.74 1583.28 1537.07 Q1583.28 1542.19 1579.76 1544.99 Q1576.24 1547.79 1569.76 1547.79 Q1567.58 1547.79 1565.27 1547.35 Q1562.98 1546.93 1560.52 1546.08 L1560.52 1541.56 Q1562.47 1542.7 1564.78 1543.28 Q1567.1 1543.86 1569.62 1543.86 Q1574.02 1543.86 1576.31 1542.12 Q1578.63 1540.38 1578.63 1537.07 Q1578.63 1534.02 1576.47 1532.31 Q1574.34 1530.57 1570.52 1530.57 L1566.5 1530.57 L1566.5 1526.73 L1570.71 1526.73 Q1574.16 1526.73 1575.99 1525.36 Q1577.82 1523.97 1577.82 1521.38 Q1577.82 1518.72 1575.92 1517.31 Q1574.04 1515.87 1570.52 1515.87 Q1568.6 1515.87 1566.4 1516.29 Q1564.2 1516.7 1561.57 1517.58 L1561.57 1513.42 Q1564.23 1512.68 1566.54 1512.31 Q1568.88 1511.93 1570.94 1511.93 Q1576.26 1511.93 1579.37 1514.37 Q1582.47 1516.77 1582.47 1520.89 Q1582.47 1523.76 1580.82 1525.75 Q1579.18 1527.72 1576.15 1528.49 Z" fill="#000000" fill-rule="evenodd" fill-opacity="1"></path><path clip-path="url(#clip160)" d="M 0 0 M1914.35 1516.63 L1902.54 1535.08 L1914.35 1535.08 L1914.35 1516.63 M1913.12 1512.56 L1919 1512.56 L1919 1535.08 L1923.93 1535.08 L1923.93 1538.97 L1919 1538.97 L1919 1547.12 L1914.35 1547.12 L1914.35 1538.97 L1898.74 1538.97 L1898.74 1534.46 L1913.12 1512.56 Z" fill="#000000" fill-rule="evenodd" fill-opacity="1"></path><path clip-path="url(#clip160)" d="M 0 0 M2241.05 1512.56 L2259.41 1512.56 L2259.41 1516.5 L2245.33 1516.5 L2245.33 1524.97 Q2246.35 1524.62 2247.37 1524.46 Q2248.39 1524.27 2249.41 1524.27 Q2255.19 1524.27 2258.57 1527.44 Q2261.95 1530.62 2261.95 1536.03 Q2261.95 1541.61 2258.48 1544.71 Q2255.01 1547.79 2248.69 1547.79 Q2246.51 1547.79 2244.24 1547.42 Q2242 1547.05 2239.59 1546.31 L2239.59 1541.61 Q2241.67 1542.74 2243.9 1543.3 Q2246.12 1543.86 2248.6 1543.86 Q2252.6 1543.86 2254.94 1541.75 Q2257.28 1539.64 2257.28 1536.03 Q2257.28 1532.42 2254.94 1530.31 Q2252.6 1528.21 2248.6 1528.21 Q2246.72 1528.21 2244.85 1528.62 Q2242.99 1529.04 2241.05 1529.92 L2241.05 1512.56 Z" fill="#000000" fill-rule="evenodd" fill-opacity="1"></path><polyline clip-path="url(#clip162)" style="stroke:#000000; stroke-width:2; stroke-opacity:0.1; fill:none" points="
  112.177,1445.72 2352.76,1445.72 
  "></polyline>
<polyline clip-path="url(#clip162)" style="stroke:#000000; stroke-width:2; stroke-opacity:0.1; fill:none" points="
  112.177,1106.28 2352.76,1106.28 
  "></polyline>
<polyline clip-path="url(#clip162)" style="stroke:#000000; stroke-width:2; stroke-opacity:0.1; fill:none" points="
  112.177,766.846 2352.76,766.846 
  "></polyline>
<polyline clip-path="url(#clip162)" style="stroke:#000000; stroke-width:2; stroke-opacity:0.1; fill:none" points="
  112.177,427.411 2352.76,427.411 
  "></polyline>
<polyline clip-path="url(#clip162)" style="stroke:#000000; stroke-width:2; stroke-opacity:0.1; fill:none" points="
  112.177,87.9763 2352.76,87.9763 
  "></polyline>
<polyline clip-path="url(#clip160)" style="stroke:#000000; stroke-width:4; stroke-opacity:1; fill:none" points="
  112.177,1486.45 112.177,47.2441 
  "></polyline>
<polyline clip-path="url(#clip160)" style="stroke:#000000; stroke-width:2; stroke-opacity:0.5; fill:none" points="
  2352.76,1486.45 2352.76,47.2441 
  "></polyline>
<polyline clip-path="url(#clip160)" style="stroke:#000000; stroke-width:4; stroke-opacity:1; fill:none" points="
  112.177,1445.72 139.064,1445.72 
  "></polyline>
<polyline clip-path="url(#clip160)" style="stroke:#000000; stroke-width:4; stroke-opacity:1; fill:none" points="
  112.177,1106.28 139.064,1106.28 
  "></polyline>
<polyline clip-path="url(#clip160)" style="stroke:#000000; stroke-width:4; stroke-opacity:1; fill:none" points="
  112.177,766.846 139.064,766.846 
  "></polyline>
<polyline clip-path="url(#clip160)" style="stroke:#000000; stroke-width:4; stroke-opacity:1; fill:none" points="
  112.177,427.411 139.064,427.411 
  "></polyline>
<polyline clip-path="url(#clip160)" style="stroke:#000000; stroke-width:4; stroke-opacity:1; fill:none" points="
  112.177,87.9763 139.064,87.9763 
  "></polyline>
<path clip-path="url(#clip160)" d="M 0 0 M64.2328 1431.51 Q60.6217 1431.51 58.793 1435.08 Q56.9875 1438.62 56.9875 1445.75 Q56.9875 1452.86 58.793 1456.42 Q60.6217 1459.96 64.2328 1459.96 Q67.867 1459.96 69.6726 1456.42 Q71.5013 1452.86 71.5013 1445.75 Q71.5013 1438.62 69.6726 1435.08 Q67.867 1431.51 64.2328 1431.51 M64.2328 1427.81 Q70.0429 1427.81 73.0985 1432.42 Q76.1772 1437 76.1772 1445.75 Q76.1772 1454.48 73.0985 1459.08 Q70.0429 1463.67 64.2328 1463.67 Q58.4226 1463.67 55.344 1459.08 Q52.2884 1454.48 52.2884 1445.75 Q52.2884 1437 55.344 1432.42 Q58.4226 1427.81 64.2328 1427.81 Z" fill="#000000" fill-rule="evenodd" fill-opacity="1"></path><path clip-path="url(#clip160)" d="M 0 0 M56.2699 1119.63 L63.9087 1119.63 L63.9087 1093.26 L55.5986 1094.93 L55.5986 1090.67 L63.8624 1089 L68.5383 1089 L68.5383 1119.63 L76.1772 1119.63 L76.1772 1123.56 L56.2699 1123.56 L56.2699 1119.63 Z" fill="#000000" fill-rule="evenodd" fill-opacity="1"></path><path clip-path="url(#clip160)" d="M 0 0 M59.8578 780.191 L76.1772 780.191 L76.1772 784.126 L54.2328 784.126 L54.2328 780.191 Q56.8949 777.436 61.4782 772.807 Q66.0846 768.154 67.2652 766.811 Q69.5105 764.288 70.3902 762.552 Q71.2929 760.793 71.2929 759.103 Q71.2929 756.348 69.3485 754.612 Q67.4272 752.876 64.3254 752.876 Q62.1263 752.876 59.6726 753.64 Q57.2421 754.404 54.4643 755.955 L54.4643 751.233 Q57.2884 750.098 59.7421 749.52 Q62.1958 748.941 64.2328 748.941 Q69.6031 748.941 72.7976 751.626 Q75.992 754.311 75.992 758.802 Q75.992 760.932 75.1818 762.853 Q74.3948 764.751 72.2883 767.344 Q71.7096 768.015 68.6078 771.233 Q65.5059 774.427 59.8578 780.191 Z" fill="#000000" fill-rule="evenodd" fill-opacity="1"></path><path clip-path="url(#clip160)" d="M 0 0 M69.0476 426.057 Q72.404 426.775 74.279 429.043 Q76.1772 431.312 76.1772 434.645 Q76.1772 439.761 72.6587 442.562 Q69.1402 445.362 62.6587 445.362 Q60.4828 445.362 58.168 444.923 Q55.8764 444.506 53.4227 443.649 L53.4227 439.136 Q55.3671 440.27 57.6819 440.849 Q59.9967 441.427 62.5198 441.427 Q66.918 441.427 69.2096 439.691 Q71.5244 437.955 71.5244 434.645 Q71.5244 431.589 69.3717 429.876 Q67.242 428.14 63.4226 428.14 L59.3949 428.14 L59.3949 424.298 L63.6078 424.298 Q67.0569 424.298 68.8855 422.932 Q70.7142 421.543 70.7142 418.951 Q70.7142 416.289 68.8161 414.876 Q66.9411 413.441 63.4226 413.441 Q61.5013 413.441 59.3023 413.858 Q57.1032 414.275 54.4643 415.154 L54.4643 410.988 Q57.1264 410.247 59.4412 409.877 Q61.7791 409.506 63.8393 409.506 Q69.1633 409.506 72.2652 411.937 Q75.367 414.344 75.367 418.464 Q75.367 421.335 73.7235 423.326 Q72.08 425.293 69.0476 426.057 Z" fill="#000000" fill-rule="evenodd" fill-opacity="1"></path><path clip-path="url(#clip160)" d="M 0 0 M66.5939 74.7703 L54.7884 93.2193 L66.5939 93.2193 L66.5939 74.7703 M65.367 70.6963 L71.2466 70.6963 L71.2466 93.2193 L76.1772 93.2193 L76.1772 97.1082 L71.2466 97.1082 L71.2466 105.256 L66.5939 105.256 L66.5939 97.1082 L50.9921 97.1082 L50.9921 92.5943 L65.367 70.6963 Z" fill="#000000" fill-rule="evenodd" fill-opacity="1"></path><polyline clip-path="url(#clip162)" style="stroke:#1f78b4; stroke-width:16; stroke-opacity:1; fill:none" points="
  553.597,1445.72 1232.47,87.9763 
  "></polyline>
<polyline clip-path="url(#clip162)" style="stroke:#1f78b4; stroke-width:16; stroke-opacity:1; fill:none" points="
  1200.27,112.126 1232.47,87.9763 1232.47,128.226 
  "></polyline>
<polyline clip-path="url(#clip162)" style="stroke:#1f78b4; stroke-width:16; stroke-opacity:1; fill:none" points="
  1232.47,87.9763 553.597,1445.72 
  "></polyline>
<polyline clip-path="url(#clip162)" style="stroke:#ff7e00; stroke-width:16; stroke-opacity:1; fill:none" points="
  553.597,1445.72 893.032,766.846 
  "></polyline>
<polyline clip-path="url(#clip162)" style="stroke:#ff7e00; stroke-width:16; stroke-opacity:1; fill:none" points="
  860.832,790.996 893.032,766.846 893.032,807.095 
  "></polyline>
<polyline clip-path="url(#clip162)" style="stroke:#ff7e00; stroke-width:16; stroke-opacity:1; fill:none" points="
  893.032,766.846 553.597,1445.72 
  "></polyline>
<polyline clip-path="url(#clip162)" style="stroke:#339f2c; stroke-width:16; stroke-opacity:1; fill:none" points="
  553.597,1445.72 1911.34,427.411 
  "></polyline>
<polyline clip-path="url(#clip162)" style="stroke:#339f2c; stroke-width:16; stroke-opacity:1; fill:none" points="
  1871.74,434.611 1911.34,427.411 1893.34,463.411 
  "></polyline>
<polyline clip-path="url(#clip162)" style="stroke:#339f2c; stroke-width:16; stroke-opacity:1; fill:none" points="
  1911.34,427.411 553.597,1445.72 
  "></polyline>
<path clip-path="url(#clip160)" d="M 0 0 M728.613 935.046 Q728.613 943.736 722.752 949.024 Q716.89 954.27 707.463 954.27 Q700.413 954.27 695.207 949.065 Q694.551 949.884 693.158 951.442 Q691.764 953 691.067 953.778 L687.132 953.778 L687.132 903.403 Q687.132 901.025 686.271 900.574 Q685.411 900.123 681.353 900.123 L681.353 896.188 L696.191 895.533 L696.191 920.126 Q701.151 915.986 708.529 915.986 Q717.587 915.986 723.08 921.315 Q728.613 926.603 728.613 935.046 M717.874 935.046 Q717.874 933.284 717.833 932.3 Q717.833 931.275 717.628 929.349 Q717.423 927.422 717.054 926.234 Q716.726 925.045 715.948 923.528 Q715.21 922.012 714.144 921.151 Q713.078 920.249 711.398 919.634 Q709.758 919.02 707.627 919.02 Q704.307 919.02 701.396 920.536 Q698.527 922.053 696.724 924.389 L696.724 945.458 Q697.216 946.195 697.871 946.974 Q698.527 947.712 699.757 948.819 Q700.987 949.884 702.79 950.581 Q704.635 951.278 706.684 951.278 Q709.102 951.278 711.562 950.253 Q714.021 949.229 715.661 946.892 Q716.685 945.376 717.177 943.121 Q717.71 940.867 717.792 939.268 Q717.874 937.67 717.874 935.046 Z" fill="#ff7e00" fill-rule="evenodd" fill-opacity="1"></path><path clip-path="url(#clip160)" d="M 0 0 M737.11 943.494 L737.11 941.658 Q744.168 941.658 747.812 937.899 Q748.816 937.899 748.988 938.129 Q749.16 938.358 749.16 939.42 L749.16 972.388 Q749.16 974.138 750.021 974.683 Q750.882 975.228 754.641 975.228 L756.506 975.228 L756.506 977.036 Q754.44 976.864 746.98 976.864 Q739.52 976.864 737.483 977.036 L737.483 975.228 L739.348 975.228 Q743.049 975.228 743.938 974.712 Q744.828 974.167 744.828 972.388 L744.828 941.945 Q741.758 943.494 737.11 943.494 Z" fill="#ff7e00" fill-rule="evenodd" fill-opacity="1"></path><path clip-path="url(#clip160)" d="M 0 0 M1066.03 256.177 Q1066.03 264.866 1060.17 270.154 Q1054.31 275.401 1044.88 275.401 Q1037.83 275.401 1032.62 270.195 Q1031.97 271.015 1030.57 272.572 Q1029.18 274.13 1028.48 274.909 L1024.55 274.909 L1024.55 224.533 Q1024.55 222.156 1023.69 221.705 Q1022.83 221.254 1018.77 221.254 L1018.77 217.319 L1033.61 216.663 L1033.61 241.257 Q1038.57 237.117 1045.95 237.117 Q1055 237.117 1060.5 242.445 Q1066.03 247.733 1066.03 256.177 M1055.29 256.177 Q1055.29 254.414 1055.25 253.43 Q1055.25 252.406 1055.05 250.479 Q1054.84 248.553 1054.47 247.364 Q1054.14 246.175 1053.36 244.659 Q1052.63 243.142 1051.56 242.281 Q1050.5 241.379 1048.81 240.765 Q1047.18 240.15 1045.04 240.15 Q1041.72 240.15 1038.81 241.666 Q1035.94 243.183 1034.14 245.519 L1034.14 266.588 Q1034.63 267.326 1035.29 268.104 Q1035.94 268.842 1037.17 269.949 Q1038.4 271.015 1040.21 271.712 Q1042.05 272.408 1044.1 272.408 Q1046.52 272.408 1048.98 271.384 Q1051.44 270.359 1053.08 268.023 Q1054.1 266.506 1054.59 264.251 Q1055.13 261.997 1055.21 260.398 Q1055.29 258.8 1055.29 256.177 Z" fill="#1f78b4" fill-rule="evenodd" fill-opacity="1"></path><path clip-path="url(#clip160)" d="M 0 0 M1074.53 298.166 Q1074.53 297.105 1074.61 296.789 Q1074.73 296.473 1075.19 295.986 L1086.46 283.418 Q1092.63 276.475 1092.63 270.421 Q1092.63 266.49 1090.57 263.678 Q1088.53 260.866 1084.77 260.866 Q1082.19 260.866 1080.01 262.444 Q1077.83 264.022 1076.82 266.834 Q1076.99 266.777 1077.6 266.777 Q1079.06 266.777 1079.86 267.695 Q1080.7 268.613 1080.7 269.847 Q1080.7 271.425 1079.66 272.199 Q1078.66 272.946 1077.65 272.946 Q1077.25 272.946 1076.71 272.859 Q1076.19 272.773 1075.36 271.97 Q1074.53 271.138 1074.53 269.675 Q1074.53 265.572 1077.63 262.301 Q1080.75 259.03 1085.52 259.03 Q1090.91 259.03 1094.44 262.243 Q1098 265.428 1098 270.421 Q1098 272.171 1097.45 273.778 Q1096.94 275.356 1096.22 276.589 Q1095.53 277.823 1093.64 279.803 Q1091.74 281.783 1090.22 283.189 Q1088.7 284.595 1085.29 287.579 L1079.06 293.633 L1089.65 293.633 Q1094.81 293.633 1095.21 293.174 Q1095.79 292.342 1096.5 287.952 L1098 287.952 L1096.33 298.166 L1074.53 298.166 Z" fill="#1f78b4" fill-rule="evenodd" fill-opacity="1"></path></svg>