<svg xmlns="http://www.w3.org/2000/svg" xmlns:xlink="http://www.w3.org/1999/xlink" width="600" height="400" viewBox="0 0 2400 1600">
<defs>
  <clipPath id="clip320">
    <rect x="0" y="0" width="2400" height="1600"></rect>
  </clipPath>
</defs>
<path clip-path="url(#clip320)" d="
M0 1600 L2400 1600 L2400 0 L0 0  Z
  " fill="#ffffff" fill-rule="evenodd" fill-opacity="1"></path>
<defs>
  <clipPath id="clip321">
    <rect x="480" y="0" width="1681" height="1600"></rect>
  </clipPath>
</defs>
<path clip-path="url(#clip320)" d="
M110.881 1486.45 L2352.76 1486.45 L2352.76 47.2441 L110.881 47.2441  Z
  " fill="#ffffff" fill-rule="evenodd" fill-opacity="1"></path>
<defs>
  <clipPath id="clip322">
    <rect x="110" y="47" width="2243" height="1440"></rect>
  </clipPath>
</defs>
<polyline clip-path="url(#clip322)" style="stroke:#000000; stroke-width:2; stroke-opacity:0.1; fill:none" points="
  779.239,1486.45 779.239,47.2441 
  "></polyline>
<polyline clip-path="url(#clip322)" style="stroke:#000000; stroke-width:2; stroke-opacity:0.1; fill:none" points="
  1231.82,1486.45 1231.82,47.2441 
  "></polyline>
<polyline clip-path="url(#clip322)" style="stroke:#000000; stroke-width:2; stroke-opacity:0.1; fill:none" points="
  1684.4,1486.45 1684.4,47.2441 
  "></polyline>
<polyline clip-path="url(#clip322)" style="stroke:#000000; stroke-width:2; stroke-opacity:0.1; fill:none" points="
  2136.98,1486.45 2136.98,47.2441 
  "></polyline>
<polyline clip-path="url(#clip320)" style="stroke:#000000; stroke-width:4; stroke-opacity:1; fill:none" points="
  110.881,1445.72 2352.76,1445.72 
  "></polyline>
<polyline clip-path="url(#clip320)" style="stroke:#000000; stroke-width:4; stroke-opacity:1; fill:none" points="
  779.239,1462.99 779.239,1428.45 
  "></polyline>
<polyline clip-path="url(#clip320)" style="stroke:#000000; stroke-width:4; stroke-opacity:1; fill:none" points="
  1231.82,1462.99 1231.82,1428.45 
  "></polyline>
<polyline clip-path="url(#clip320)" style="stroke:#000000; stroke-width:4; stroke-opacity:1; fill:none" points="
  1684.4,1462.99 1684.4,1428.45 
  "></polyline>
<polyline clip-path="url(#clip320)" style="stroke:#000000; stroke-width:4; stroke-opacity:1; fill:none" points="
  2136.98,1462.99 2136.98,1428.45 
  "></polyline>
<path clip-path="url(#clip320)" d="M 0 0 M769.621 1502.45 L777.259 1502.45 L777.259 1476.09 L768.949 1477.75 L768.949 1473.49 L777.213 1471.83 L781.889 1471.83 L781.889 1502.45 L789.528 1502.45 L789.528 1506.39 L769.621 1506.39 L769.621 1502.45 Z" fill="#000000" fill-rule="evenodd" fill-opacity="1"></path><path clip-path="url(#clip320)" d="M 0 0 M1226.47 1502.45 L1242.79 1502.45 L1242.79 1506.39 L1220.85 1506.39 L1220.85 1502.45 Q1223.51 1499.7 1228.09 1495.07 Q1232.7 1490.42 1233.88 1489.07 Q1236.12 1486.55 1237 1484.81 Q1237.91 1483.05 1237.91 1481.36 Q1237.91 1478.61 1235.96 1476.87 Q1234.04 1475.14 1230.94 1475.14 Q1228.74 1475.14 1226.29 1475.9 Q1223.86 1476.67 1221.08 1478.22 L1221.08 1473.49 Q1223.9 1472.36 1226.36 1471.78 Q1228.81 1471.2 1230.85 1471.2 Q1236.22 1471.2 1239.41 1473.89 Q1242.61 1476.57 1242.61 1481.06 Q1242.61 1483.19 1241.8 1485.11 Q1241.01 1487.01 1238.9 1489.61 Q1238.32 1490.28 1235.22 1493.49 Q1232.12 1496.69 1226.47 1502.45 Z" fill="#000000" fill-rule="evenodd" fill-opacity="1"></path><path clip-path="url(#clip320)" d="M 0 0 M1688.65 1487.75 Q1692 1488.47 1693.88 1490.74 Q1695.78 1493.01 1695.78 1496.34 Q1695.78 1501.46 1692.26 1504.26 Q1688.74 1507.06 1682.26 1507.06 Q1680.08 1507.06 1677.77 1506.62 Q1675.47 1506.2 1673.02 1505.35 L1673.02 1500.83 Q1674.97 1501.97 1677.28 1502.55 Q1679.59 1503.12 1682.12 1503.12 Q1686.52 1503.12 1688.81 1501.39 Q1691.12 1499.65 1691.12 1496.34 Q1691.12 1493.29 1688.97 1491.57 Q1686.84 1489.84 1683.02 1489.84 L1678.99 1489.84 L1678.99 1485.99 L1683.21 1485.99 Q1686.66 1485.99 1688.48 1484.63 Q1690.31 1483.24 1690.31 1480.65 Q1690.31 1477.99 1688.41 1476.57 Q1686.54 1475.14 1683.02 1475.14 Q1681.1 1475.14 1678.9 1475.55 Q1676.7 1475.97 1674.06 1476.85 L1674.06 1472.68 Q1676.72 1471.94 1679.04 1471.57 Q1681.38 1471.2 1683.44 1471.2 Q1688.76 1471.2 1691.86 1473.63 Q1694.97 1476.04 1694.97 1480.16 Q1694.97 1483.03 1693.32 1485.02 Q1691.68 1486.99 1688.65 1487.75 Z" fill="#000000" fill-rule="evenodd" fill-opacity="1"></path><path clip-path="url(#clip320)" d="M 0 0 M2139.99 1475.9 L2128.18 1494.35 L2139.99 1494.35 L2139.99 1475.9 M2138.76 1471.83 L2144.64 1471.83 L2144.64 1494.35 L2149.57 1494.35 L2149.57 1498.24 L2144.64 1498.24 L2144.64 1506.39 L2139.99 1506.39 L2139.99 1498.24 L2124.39 1498.24 L2124.39 1493.73 L2138.76 1471.83 Z" fill="#000000" fill-rule="evenodd" fill-opacity="1"></path><polyline clip-path="url(#clip322)" style="stroke:#000000; stroke-width:2; stroke-opacity:0.1; fill:none" points="
  110.881,993.136 2352.76,993.136 
  "></polyline>
<polyline clip-path="url(#clip322)" style="stroke:#000000; stroke-width:2; stroke-opacity:0.1; fill:none" points="
  110.881,540.556 2352.76,540.556 
  "></polyline>
<polyline clip-path="url(#clip322)" style="stroke:#000000; stroke-width:2; stroke-opacity:0.1; fill:none" points="
  110.881,87.9763 2352.76,87.9763 
  "></polyline>
<polyline clip-path="url(#clip320)" style="stroke:#000000; stroke-width:4; stroke-opacity:1; fill:none" points="
  326.659,1486.45 326.659,47.2441 
  "></polyline>
<polyline clip-path="url(#clip320)" style="stroke:#000000; stroke-width:4; stroke-opacity:1; fill:none" points="
  299.756,993.136 353.561,993.136 
  "></polyline>
<polyline clip-path="url(#clip320)" style="stroke:#000000; stroke-width:4; stroke-opacity:1; fill:none" points="
  299.756,540.556 353.561,540.556 
  "></polyline>
<polyline clip-path="url(#clip320)" style="stroke:#000000; stroke-width:4; stroke-opacity:1; fill:none" points="
  299.756,87.9763 353.561,87.9763 
  "></polyline>
<path clip-path="url(#clip320)" d="M 0 0 M270.751 1006.48 L278.39 1006.48 L278.39 980.115 L270.08 981.782 L270.08 977.523 L278.344 975.856 L283.02 975.856 L283.02 1006.48 L290.659 1006.48 L290.659 1010.42 L270.751 1010.42 L270.751 1006.48 Z" fill="#000000" fill-rule="evenodd" fill-opacity="1"></path><path clip-path="url(#clip320)" d="M 0 0 M274.339 553.901 L290.659 553.901 L290.659 557.836 L268.714 557.836 L268.714 553.901 Q271.376 551.146 275.96 546.517 Q280.566 541.864 281.747 540.521 Q283.992 537.998 284.872 536.262 Q285.775 534.503 285.775 532.813 Q285.775 530.058 283.83 528.322 Q281.909 526.586 278.807 526.586 Q276.608 526.586 274.154 527.35 Q271.724 528.114 268.946 529.665 L268.946 524.943 Q271.77 523.808 274.224 523.23 Q276.677 522.651 278.714 522.651 Q284.085 522.651 287.279 525.336 Q290.474 528.021 290.474 532.512 Q290.474 534.642 289.663 536.563 Q288.876 538.461 286.77 541.054 Q286.191 541.725 283.089 544.943 Q279.988 548.137 274.339 553.901 Z" fill="#000000" fill-rule="evenodd" fill-opacity="1"></path><path clip-path="url(#clip320)" d="M 0 0 M283.529 86.6221 Q286.886 87.3397 288.761 89.6082 Q290.659 91.8767 290.659 95.21 Q290.659 100.326 287.14 103.127 Q283.622 105.928 277.14 105.928 Q274.964 105.928 272.65 105.488 Q270.358 105.071 267.904 104.215 L267.904 99.7008 Q269.849 100.835 272.164 101.414 Q274.478 101.992 277.001 101.992 Q281.4 101.992 283.691 100.256 Q286.006 98.5202 286.006 95.21 Q286.006 92.1545 283.853 90.4415 Q281.724 88.7054 277.904 88.7054 L273.876 88.7054 L273.876 84.8629 L278.089 84.8629 Q281.538 84.8629 283.367 83.4971 Q285.196 82.1083 285.196 79.5157 Q285.196 76.8537 283.298 75.4416 Q281.423 74.0064 277.904 74.0064 Q275.983 74.0064 273.784 74.4231 Q271.585 74.8398 268.946 75.7194 L268.946 71.5528 Q271.608 70.812 273.923 70.4416 Q276.261 70.0713 278.321 70.0713 Q283.645 70.0713 286.747 72.5018 Q289.849 74.9092 289.849 79.0296 Q289.849 81.8999 288.205 83.8907 Q286.562 85.8582 283.529 86.6221 Z" fill="#000000" fill-rule="evenodd" fill-opacity="1"></path><polyline clip-path="url(#clip322)" style="stroke:#339f2c; stroke-width:16; stroke-opacity:0.5; fill:none" stroke-dasharray="8, 16" points="
  2136.98,1445.72 2136.98,87.9763 
  "></polyline>
<polyline clip-path="url(#clip322)" style="stroke:#339f2c; stroke-width:16; stroke-opacity:0.5; fill:none" stroke-dasharray="8, 16" points="
  326.659,87.9763 2136.98,87.9763 
  "></polyline>
<polyline clip-path="url(#clip322)" style="stroke:#1f78b4; stroke-width:16; stroke-opacity:1; fill:none" points="
  326.659,1445.72 779.239,1445.72 
  "></polyline>
<polyline clip-path="url(#clip322)" style="stroke:#1f78b4; stroke-width:16; stroke-opacity:1; fill:none" points="
  743.239,1427.72 779.239,1445.72 743.239,1463.72 
  "></polyline>
<polyline clip-path="url(#clip322)" style="stroke:#1f78b4; stroke-width:16; stroke-opacity:1; fill:none" points="
  779.239,1445.72 326.659,1445.72 
  "></polyline>
<polyline clip-path="url(#clip322)" style="stroke:#1f78b4; stroke-width:16; stroke-opacity:1; fill:none" points="
  779.239,1445.72 1231.82,1445.72 
  "></polyline>
<polyline clip-path="url(#clip322)" style="stroke:#1f78b4; stroke-width:16; stroke-opacity:1; fill:none" points="
  1195.82,1427.72 1231.82,1445.72 1195.82,1463.72 
  "></polyline>
<polyline clip-path="url(#clip322)" style="stroke:#1f78b4; stroke-width:16; stroke-opacity:1; fill:none" points="
  1231.82,1445.72 779.239,1445.72 
  "></polyline>
<polyline clip-path="url(#clip322)" style="stroke:#1f78b4; stroke-width:16; stroke-opacity:1; fill:none" points="
  1231.82,1445.72 1684.4,1445.72 
  "></polyline>
<polyline clip-path="url(#clip322)" style="stroke:#1f78b4; stroke-width:16; stroke-opacity:1; fill:none" points="
  1648.4,1427.72 1684.4,1445.72 1648.4,1463.72 
  "></polyline>
<polyline clip-path="url(#clip322)" style="stroke:#1f78b4; stroke-width:16; stroke-opacity:1; fill:none" points="
  1684.4,1445.72 1231.82,1445.72 
  "></polyline>
<polyline clip-path="url(#clip322)" style="stroke:#1f78b4; stroke-width:16; stroke-opacity:1; fill:none" points="
  1684.4,1445.72 2136.98,1445.72 
  "></polyline>
<polyline clip-path="url(#clip322)" style="stroke:#1f78b4; stroke-width:16; stroke-opacity:1; fill:none" points="
  2100.98,1427.72 2136.98,1445.72 2100.98,1463.72 
  "></polyline>
<polyline clip-path="url(#clip322)" style="stroke:#1f78b4; stroke-width:16; stroke-opacity:1; fill:none" points="
  2136.98,1445.72 1684.4,1445.72 
  "></polyline>
<polyline clip-path="url(#clip322)" style="stroke:#ff7e00; stroke-width:16; stroke-opacity:1; fill:none" points="
  326.659,1445.72 326.659,993.136 
  "></polyline>
<polyline clip-path="url(#clip322)" style="stroke:#ff7e00; stroke-width:16; stroke-opacity:1; fill:none" points="
  308.659,1029.14 326.659,993.136 344.659,1029.14 
  "></polyline>
<polyline clip-path="url(#clip322)" style="stroke:#ff7e00; stroke-width:16; stroke-opacity:1; fill:none" points="
  326.659,993.136 326.659,1445.72 
  "></polyline>
<polyline clip-path="url(#clip322)" style="stroke:#ff7e00; stroke-width:16; stroke-opacity:1; fill:none" points="
  326.659,993.136 326.659,540.556 
  "></polyline>
<polyline clip-path="url(#clip322)" style="stroke:#ff7e00; stroke-width:16; stroke-opacity:1; fill:none" points="
  308.659,576.556 326.659,540.556 344.659,576.556 
  "></polyline>
<polyline clip-path="url(#clip322)" style="stroke:#ff7e00; stroke-width:16; stroke-opacity:1; fill:none" points="
  326.659,540.556 326.659,993.136 
  "></polyline>
<polyline clip-path="url(#clip322)" style="stroke:#ff7e00; stroke-width:16; stroke-opacity:1; fill:none" points="
  326.659,540.556 326.659,87.9763 
  "></polyline>
<polyline clip-path="url(#clip322)" style="stroke:#ff7e00; stroke-width:16; stroke-opacity:1; fill:none" points="
  308.659,123.976 326.659,87.9763 344.659,123.976 
  "></polyline>
<polyline clip-path="url(#clip322)" style="stroke:#ff7e00; stroke-width:16; stroke-opacity:1; fill:none" points="
  326.659,87.9763 326.659,540.556 
  "></polyline>
<polyline clip-path="url(#clip322)" style="stroke:#339f2c; stroke-width:16; stroke-opacity:1; fill:none" points="
  326.659,1445.72 2136.98,87.9763 
  "></polyline>
<polyline clip-path="url(#clip322)" style="stroke:#339f2c; stroke-width:16; stroke-opacity:1; fill:none" points="
  2097.38,95.1763 2136.98,87.9763 2118.98,123.976 
  "></polyline>
<polyline clip-path="url(#clip322)" style="stroke:#339f2c; stroke-width:16; stroke-opacity:1; fill:none" points="
  2136.98,87.9763 326.659,1445.72 
  "></polyline>
<path clip-path="url(#clip320)" d="M 0 0 M574.274 1554.7 L559.395 1555.19 L559.395 1548.67 Q555.583 1555.19 547.303 1555.19 Q543.901 1555.19 541.36 1554.74 Q538.86 1554.29 536.646 1553.18 Q534.474 1552.04 533.326 1549.82 Q532.178 1547.61 532.178 1544.37 L532.178 1524.82 Q532.178 1522.44 531.318 1521.99 Q530.457 1521.54 526.399 1521.54 L526.399 1517.61 L541.77 1516.91 L541.77 1545.56 Q541.77 1547.57 541.893 1548.59 Q542.057 1549.58 542.672 1550.56 Q543.327 1551.5 544.721 1551.87 Q546.115 1552.2 548.492 1552.2 Q553.124 1552.2 555.993 1549.08 Q558.903 1545.97 558.903 1540.85 L558.903 1524.82 Q558.903 1522.44 558.002 1521.99 Q557.141 1521.54 553.083 1521.54 L553.083 1517.61 L568.454 1516.91 L568.454 1547.49 Q568.454 1549.86 569.315 1550.31 Q570.216 1550.77 574.274 1550.77 L574.274 1554.7 Z" fill="#1f78b4" fill-rule="evenodd" fill-opacity="1"></path><path clip-path="url(#clip320)" d="M 0 0 M257.435 1204.39 Q254.853 1204.39 253.541 1204.64 Q252.23 1204.84 251.861 1205.17 Q251.492 1205.46 251.205 1206.15 L237.269 1236.03 Q236.695 1237.26 236.039 1237.67 Q235.383 1238.04 234.194 1238.04 Q233.457 1238.04 233.047 1237.96 Q232.678 1237.92 232.063 1237.43 Q231.489 1236.94 230.997 1235.95 L216.282 1204.39 L210.912 1204.39 L210.912 1200.46 L220.504 1200.7 L230.915 1200.46 L230.915 1204.39 L226.365 1204.39 L237.023 1227.3 L246.778 1206.32 L247.188 1205.29 Q247.188 1204.84 245.917 1204.64 Q244.647 1204.39 243.171 1204.39 L243.171 1200.46 L250.795 1200.7 Q254.32 1200.7 257.435 1200.46 L257.435 1204.39 Z" fill="#ff7e00" fill-rule="evenodd" fill-opacity="1"></path></svg>