<svg xmlns="http://www.w3.org/2000/svg" xmlns:xlink="http://www.w3.org/1999/xlink" width="600" height="400" viewBox="0 0 2400 1600">
<defs>
  <clipPath id="clip680">
    <rect x="0" y="0" width="2400" height="1600"></rect>
  </clipPath>
</defs>
<path clip-path="url(#clip680)" d="
M0 1600 L2400 1600 L2400 0 L0 0  Z
  " fill="#ffffff" fill-rule="evenodd" fill-opacity="1"></path>
<defs>
  <clipPath id="clip681">
    <rect x="480" y="0" width="1681" height="1600"></rect>
  </clipPath>
</defs>
<path clip-path="url(#clip680)" d="
M110.881 1486.45 L2352.76 1486.45 L2352.76 47.2441 L110.881 47.2441  Z
  " fill="#ffffff" fill-rule="evenodd" fill-opacity="1"></path>
<defs>
  <clipPath id="clip682">
    <rect x="110" y="47" width="2243" height="1440"></rect>
  </clipPath>
</defs>
<polyline clip-path="url(#clip682)" style="stroke:#000000; stroke-width:2; stroke-opacity:0.1; fill:none" points="
  326.659,1486.45 326.659,47.2441 
  "></polyline>
<polyline clip-path="url(#clip682)" style="stroke:#000000; stroke-width:2; stroke-opacity:0.1; fill:none" points="
  779.239,1486.45 779.239,47.2441 
  "></polyline>
<polyline clip-path="url(#clip682)" style="stroke:#000000; stroke-width:2; stroke-opacity:0.1; fill:none" points="
  1231.82,1486.45 1231.82,47.2441 
  "></polyline>
<polyline clip-path="url(#clip682)" style="stroke:#000000; stroke-width:2; stroke-opacity:0.1; fill:none" points="
  1684.4,1486.45 1684.4,47.2441 
  "></polyline>
<polyline clip-path="url(#clip682)" style="stroke:#000000; stroke-width:2; stroke-opacity:0.1; fill:none" points="
  2136.98,1486.45 2136.98,47.2441 
  "></polyline>
<polyline clip-path="url(#clip680)" style="stroke:#000000; stroke-width:4; stroke-opacity:1; fill:none" points="
  110.881,1486.45 2352.76,1486.45 
  "></polyline>
<polyline clip-path="url(#clip680)" style="stroke:#000000; stroke-width:2; stroke-opacity:0.5; fill:none" points="
  110.881,47.2441 2352.76,47.2441 
  "></polyline>
<polyline clip-path="url(#clip680)" style="stroke:#000000; stroke-width:4; stroke-opacity:1; fill:none" points="
  326.659,1486.45 326.659,1469.18 
  "></polyline>
<polyline clip-path="url(#clip680)" style="stroke:#000000; stroke-width:4; stroke-opacity:1; fill:none" points="
  779.239,1486.45 779.239,1469.18 
  "></polyline>
<polyline clip-path="url(#clip680)" style="stroke:#000000; stroke-width:4; stroke-opacity:1; fill:none" points="
  1231.82,1486.45 1231.82,1469.18 
  "></polyline>
<polyline clip-path="url(#clip680)" style="stroke:#000000; stroke-width:4; stroke-opacity:1; fill:none" points="
  1684.4,1486.45 1684.4,1469.18 
  "></polyline>
<polyline clip-path="url(#clip680)" style="stroke:#000000; stroke-width:4; stroke-opacity:1; fill:none" points="
  2136.98,1486.45 2136.98,1469.18 
  "></polyline>
<path clip-path="url(#clip680)" d="M 0 0 M326.659 1515.64 Q323.048 1515.64 321.219 1519.2 Q319.413 1522.75 319.413 1529.87 Q319.413 1536.98 321.219 1540.55 Q323.048 1544.09 326.659 1544.09 Q330.293 1544.09 332.099 1540.55 Q333.927 1536.98 333.927 1529.87 Q333.927 1522.75 332.099 1519.2 Q330.293 1515.64 326.659 1515.64 M326.659 1511.93 Q332.469 1511.93 335.524 1516.54 Q338.603 1521.12 338.603 1529.87 Q338.603 1538.6 335.524 1543.21 Q332.469 1547.79 326.659 1547.79 Q320.849 1547.79 317.77 1543.21 Q314.714 1538.6 314.714 1529.87 Q314.714 1521.12 317.77 1516.54 Q320.849 1511.93 326.659 1511.93 Z" fill="#000000" fill-rule="evenodd" fill-opacity="1"></path><path clip-path="url(#clip680)" d="M 0 0 M769.621 1543.18 L777.259 1543.18 L777.259 1516.82 L768.949 1518.49 L768.949 1514.23 L777.213 1512.56 L781.889 1512.56 L781.889 1543.18 L789.528 1543.18 L789.528 1547.12 L769.621 1547.12 L769.621 1543.18 Z" fill="#000000" fill-rule="evenodd" fill-opacity="1"></path><path clip-path="url(#clip680)" d="M 0 0 M1226.47 1543.18 L1242.79 1543.18 L1242.79 1547.12 L1220.85 1547.12 L1220.85 1543.18 Q1223.51 1540.43 1228.09 1535.8 Q1232.7 1531.15 1233.88 1529.81 Q1236.12 1527.28 1237 1525.55 Q1237.91 1523.79 1237.91 1522.1 Q1237.91 1519.34 1235.96 1517.61 Q1234.04 1515.87 1230.94 1515.87 Q1228.74 1515.87 1226.29 1516.63 Q1223.86 1517.4 1221.08 1518.95 L1221.08 1514.23 Q1223.9 1513.09 1226.36 1512.51 Q1228.81 1511.93 1230.85 1511.93 Q1236.22 1511.93 1239.41 1514.62 Q1242.61 1517.31 1242.61 1521.8 Q1242.61 1523.93 1241.8 1525.85 Q1241.01 1527.74 1238.9 1530.34 Q1238.32 1531.01 1235.22 1534.23 Q1232.12 1537.42 1226.47 1543.18 Z" fill="#000000" fill-rule="evenodd" fill-opacity="1"></path><path clip-path="url(#clip680)" d="M 0 0 M1688.65 1528.49 Q1692 1529.2 1693.88 1531.47 Q1695.78 1533.74 1695.78 1537.07 Q1695.78 1542.19 1692.26 1544.99 Q1688.74 1547.79 1682.26 1547.79 Q1680.08 1547.79 1677.77 1547.35 Q1675.47 1546.93 1673.02 1546.08 L1673.02 1541.56 Q1674.97 1542.7 1677.28 1543.28 Q1679.59 1543.86 1682.12 1543.86 Q1686.52 1543.86 1688.81 1542.12 Q1691.12 1540.38 1691.12 1537.07 Q1691.12 1534.02 1688.97 1532.31 Q1686.84 1530.57 1683.02 1530.57 L1678.99 1530.57 L1678.99 1526.73 L1683.21 1526.73 Q1686.66 1526.73 1688.48 1525.36 Q1690.31 1523.97 1690.31 1521.38 Q1690.31 1518.72 1688.41 1517.31 Q1686.54 1515.87 1683.02 1515.87 Q1681.1 1515.87 1678.9 1516.29 Q1676.7 1516.7 1674.06 1517.58 L1674.06 1513.42 Q1676.72 1512.68 1679.04 1512.31 Q1681.38 1511.93 1683.44 1511.93 Q1688.76 1511.93 1691.86 1514.37 Q1694.97 1516.77 1694.97 1520.89 Q1694.97 1523.76 1693.32 1525.75 Q1691.68 1527.72 1688.65 1528.49 Z" fill="#000000" fill-rule="evenodd" fill-opacity="1"></path><path clip-path="url(#clip680)" d="M 0 0 M2139.99 1516.63 L2128.18 1535.08 L2139.99 1535.08 L2139.99 1516.63 M2138.76 1512.56 L2144.64 1512.56 L2144.64 1535.08 L2149.57 1535.08 L2149.57 1538.97 L2144.64 1538.97 L2144.64 1547.12 L2139.99 1547.12 L2139.99 1538.97 L2124.39 1538.97 L2124.39 1534.46 L2138.76 1512.56 Z" fill="#000000" fill-rule="evenodd" fill-opacity="1"></path><polyline clip-path="url(#clip682)" style="stroke:#000000; stroke-width:2; stroke-opacity:0.1; fill:none" points="
  110.881,1445.72 2352.76,1445.72 
  "></polyline>
<polyline clip-path="url(#clip682)" style="stroke:#000000; stroke-width:2; stroke-opacity:0.1; fill:none" points="
  110.881,993.136 2352.76,993.136 
  "></polyline>
<polyline clip-path="url(#clip682)" style="stroke:#000000; stroke-width:2; stroke-opacity:0.1; fill:none" points="
  110.881,540.556 2352.76,540.556 
  "></polyline>
<polyline clip-path="url(#clip682)" style="stroke:#000000; stroke-width:2; stroke-opacity:0.1; fill:none" points="
  110.881,87.9763 2352.76,87.9763 
  "></polyline>
<polyline clip-path="url(#clip680)" style="stroke:#000000; stroke-width:4; stroke-opacity:1; fill:none" points="
  110.881,1486.45 110.881,47.2441 
  "></polyline>
<polyline clip-path="url(#clip680)" style="stroke:#000000; stroke-width:2; stroke-opacity:0.5; fill:none" points="
  2352.76,1486.45 2352.76,47.2441 
  "></polyline>
<polyline clip-path="url(#clip680)" style="stroke:#000000; stroke-width:4; stroke-opacity:1; fill:none" points="
  110.881,1445.72 137.783,1445.72 
  "></polyline>
<polyline clip-path="url(#clip680)" style="stroke:#000000; stroke-width:4; stroke-opacity:1; fill:none" points="
  110.881,993.136 137.783,993.136 
  "></polyline>
<polyline clip-path="url(#clip680)" style="stroke:#000000; stroke-width:4; stroke-opacity:1; fill:none" points="
  110.881,540.556 137.783,540.556 
  "></polyline>
<polyline clip-path="url(#clip680)" style="stroke:#000000; stroke-width:4; stroke-opacity:1; fill:none" points="
  110.881,87.9763 137.783,87.9763 
  "></polyline>
<path clip-path="url(#clip680)" d="M 0 0 M62.9365 1431.51 Q59.3254 1431.51 57.4967 1435.08 Q55.6912 1438.62 55.6912 1445.75 Q55.6912 1452.86 57.4967 1456.42 Q59.3254 1459.96 62.9365 1459.96 Q66.5707 1459.96 68.3763 1456.42 Q70.205 1452.86 70.205 1445.75 Q70.205 1438.62 68.3763 1435.08 Q66.5707 1431.51 62.9365 1431.51 M62.9365 1427.81 Q68.7467 1427.81 71.8022 1432.42 Q74.8809 1437 74.8809 1445.75 Q74.8809 1454.48 71.8022 1459.08 Q68.7467 1463.67 62.9365 1463.67 Q57.1264 1463.67 54.0477 1459.08 Q50.9921 1454.48 50.9921 1445.75 Q50.9921 1437 54.0477 1432.42 Q57.1264 1427.81 62.9365 1427.81 Z" fill="#000000" fill-rule="evenodd" fill-opacity="1"></path><path clip-path="url(#clip680)" d="M 0 0 M54.9736 1006.48 L62.6124 1006.48 L62.6124 980.115 L54.3023 981.782 L54.3023 977.523 L62.5661 975.856 L67.242 975.856 L67.242 1006.48 L74.8809 1006.48 L74.8809 1010.42 L54.9736 1010.42 L54.9736 1006.48 Z" fill="#000000" fill-rule="evenodd" fill-opacity="1"></path><path clip-path="url(#clip680)" d="M 0 0 M58.5615 553.901 L74.8809 553.901 L74.8809 557.836 L52.9366 557.836 L52.9366 553.901 Q55.5986 551.146 60.1819 546.517 Q64.7883 541.864 65.9689 540.521 Q68.2143 537.998 69.0939 536.262 Q69.9967 534.503 69.9967 532.813 Q69.9967 530.058 68.0522 528.322 Q66.1309 526.586 63.0291 526.586 Q60.83 526.586 58.3763 527.35 Q55.9458 528.114 53.168 529.665 L53.168 524.943 Q55.9921 523.808 58.4458 523.23 Q60.8995 522.651 62.9365 522.651 Q68.3068 522.651 71.5013 525.336 Q74.6957 528.021 74.6957 532.512 Q74.6957 534.642 73.8855 536.563 Q73.0985 538.461 70.992 541.054 Q70.4133 541.725 67.3115 544.943 Q64.2096 548.137 58.5615 553.901 Z" fill="#000000" fill-rule="evenodd" fill-opacity="1"></path><path clip-path="url(#clip680)" d="M 0 0 M67.7513 86.6221 Q71.1078 87.3397 72.9827 89.6082 Q74.8809 91.8767 74.8809 95.21 Q74.8809 100.326 71.3624 103.127 Q67.8439 105.928 61.3624 105.928 Q59.1865 105.928 56.8717 105.488 Q54.5801 105.071 52.1264 104.215 L52.1264 99.7008 Q54.0708 100.835 56.3856 101.414 Q58.7004 101.992 61.2236 101.992 Q65.6217 101.992 67.9133 100.256 Q70.2281 98.5202 70.2281 95.21 Q70.2281 92.1545 68.0754 90.4415 Q65.9457 88.7054 62.1263 88.7054 L58.0986 88.7054 L58.0986 84.8629 L62.3115 84.8629 Q65.7606 84.8629 67.5893 83.4971 Q69.418 82.1083 69.418 79.5157 Q69.418 76.8537 67.5198 75.4416 Q65.6448 74.0064 62.1263 74.0064 Q60.205 74.0064 58.006 74.4231 Q55.8069 74.8398 53.168 75.7194 L53.168 71.5528 Q55.8301 70.812 58.1449 70.4416 Q60.4828 70.0713 62.543 70.0713 Q67.867 70.0713 70.9689 72.5018 Q74.0707 74.9092 74.0707 79.0296 Q74.0707 81.8999 72.4272 83.8907 Q70.7837 85.8582 67.7513 86.6221 Z" fill="#000000" fill-rule="evenodd" fill-opacity="1"></path><polyline clip-path="url(#clip682)" style="stroke:#1f78b4; stroke-width:16; stroke-opacity:1; fill:none" points="
  326.659,1445.72 779.239,540.556 
  "></polyline>
<polyline clip-path="url(#clip682)" style="stroke:#1f78b4; stroke-width:16; stroke-opacity:1; fill:none" points="
  747.039,564.706 779.239,540.556 779.239,580.805 
  "></polyline>
<polyline clip-path="url(#clip682)" style="stroke:#1f78b4; stroke-width:16; stroke-opacity:1; fill:none" points="
  779.239,540.556 326.659,1445.72 
  "></polyline>
<polyline clip-path="url(#clip682)" style="stroke:#a6cee2; stroke-width:16; stroke-opacity:1; fill:none" points="
  326.659,1445.72 628.394,842.246 
  "></polyline>
<polyline clip-path="url(#clip682)" style="stroke:#a6cee2; stroke-width:16; stroke-opacity:1; fill:none" points="
  596.194,866.395 628.394,842.246 628.394,882.495 
  "></polyline>
<polyline clip-path="url(#clip682)" style="stroke:#a6cee2; stroke-width:16; stroke-opacity:1; fill:none" points="
  628.394,842.246 326.659,1445.72 
  "></polyline>
<polyline clip-path="url(#clip682)" style="stroke:#fcbe6e; stroke-width:16; stroke-opacity:1; fill:none" points="
  326.659,1445.72 1835.29,691.401 
  "></polyline>
<polyline clip-path="url(#clip682)" style="stroke:#fcbe6e; stroke-width:16; stroke-opacity:1; fill:none" points="
  1795.04,691.401 1835.29,691.401 1811.14,723.6 
  "></polyline>
<polyline clip-path="url(#clip682)" style="stroke:#fcbe6e; stroke-width:16; stroke-opacity:1; fill:none" points="
  1835.29,691.401 326.659,1445.72 
  "></polyline>
<polyline clip-path="url(#clip682)" style="stroke:#a6cee2; stroke-width:16; stroke-opacity:1; fill:none" stroke-dasharray="8, 16" points="
  628.394,842.246 2136.98,87.9763 
  "></polyline>
<polyline clip-path="url(#clip682)" style="stroke:#a6cee2; stroke-width:16; stroke-opacity:1; fill:none" points="
  2096.73,87.9758 2136.98,87.9763 2112.83,120.175 
  "></polyline>
<polyline clip-path="url(#clip682)" style="stroke:#a6cee2; stroke-width:16; stroke-opacity:1; fill:none" stroke-dasharray="8, 16" points="
  2136.98,87.9763 628.394,842.246 
  "></polyline>
<polyline clip-path="url(#clip682)" style="stroke:#fcbe6e; stroke-width:16; stroke-opacity:1; fill:none" stroke-dasharray="8, 16" points="
  1835.29,691.401 2136.98,87.9763 
  "></polyline>
<polyline clip-path="url(#clip682)" style="stroke:#fcbe6e; stroke-width:16; stroke-opacity:1; fill:none" points="
  2104.78,112.127 2136.98,87.9763 2136.98,128.226 
  "></polyline>
<polyline clip-path="url(#clip682)" style="stroke:#fcbe6e; stroke-width:16; stroke-opacity:1; fill:none" stroke-dasharray="8, 16" points="
  2136.98,87.9763 1835.29,691.401 
  "></polyline>
<polyline clip-path="url(#clip682)" style="stroke:#ff7e00; stroke-width:16; stroke-opacity:1; fill:none" points="
  326.659,1445.72 1231.82,993.136 
  "></polyline>
<polyline clip-path="url(#clip682)" style="stroke:#ff7e00; stroke-width:16; stroke-opacity:1; fill:none" points="
  1191.57,993.136 1231.82,993.136 1207.67,1025.34 
  "></polyline>
<polyline clip-path="url(#clip682)" style="stroke:#ff7e00; stroke-width:16; stroke-opacity:1; fill:none" points="
  1231.82,993.136 326.659,1445.72 
  "></polyline>
<polyline clip-path="url(#clip682)" style="stroke:#3da44d; stroke-width:16; stroke-opacity:1; fill:none" points="
  326.659,1445.72 2136.98,87.9763 
  "></polyline>
<polyline clip-path="url(#clip682)" style="stroke:#3da44d; stroke-width:16; stroke-opacity:1; fill:none" points="
  2097.38,95.1763 2136.98,87.9763 2118.98,123.976 
  "></polyline>
<polyline clip-path="url(#clip682)" style="stroke:#3da44d; stroke-width:16; stroke-opacity:1; fill:none" points="
  2136.98,87.9763 326.659,1445.72 
  "></polyline>
<path clip-path="url(#clip680)" d="M 0 0 M1008.81 1217.91 Q1008.81 1226.6 1002.95 1231.89 Q997.087 1237.13 987.659 1237.13 Q980.609 1237.13 975.403 1231.93 Q974.748 1232.75 973.354 1234.3 Q971.96 1235.86 971.263 1236.64 L967.328 1236.64 L967.328 1186.26 Q967.328 1183.89 966.468 1183.44 Q965.607 1182.99 961.549 1182.99 L961.549 1179.05 L976.387 1178.4 L976.387 1202.99 Q981.347 1198.85 988.725 1198.85 Q997.783 1198.85 1003.28 1204.18 Q1008.81 1209.46 1008.81 1217.91 M998.07 1217.91 Q998.07 1216.15 998.029 1215.16 Q998.029 1214.14 997.824 1212.21 Q997.62 1210.28 997.251 1209.1 Q996.923 1207.91 996.144 1206.39 Q995.406 1204.87 994.34 1204.01 Q993.275 1203.11 991.594 1202.5 Q989.955 1201.88 987.823 1201.88 Q984.503 1201.88 981.593 1203.4 Q978.723 1204.92 976.92 1207.25 L976.92 1228.32 Q977.412 1229.06 978.068 1229.84 Q978.723 1230.57 979.953 1231.68 Q981.183 1232.75 982.986 1233.44 Q984.831 1234.14 986.88 1234.14 Q989.299 1234.14 991.758 1233.12 Q994.217 1232.09 995.857 1229.75 Q996.882 1228.24 997.374 1225.98 Q997.906 1223.73 997.988 1222.13 Q998.07 1220.53 998.07 1217.91 Z" fill="#ff7e00" fill-rule="evenodd" fill-opacity="1"></path><path clip-path="url(#clip680)" d="M 0 0 M1017.31 1259.9 Q1017.31 1258.84 1017.39 1258.52 Q1017.51 1258.21 1017.97 1257.72 L1029.24 1245.15 Q1035.41 1238.21 1035.41 1232.15 Q1035.41 1228.22 1033.34 1225.41 Q1031.31 1222.6 1027.55 1222.6 Q1024.97 1222.6 1022.79 1224.18 Q1020.61 1225.75 1019.6 1228.57 Q1019.77 1228.51 1020.38 1228.51 Q1021.84 1228.51 1022.64 1229.43 Q1023.47 1230.35 1023.47 1231.58 Q1023.47 1233.16 1022.44 1233.93 Q1021.44 1234.68 1020.43 1234.68 Q1020.03 1234.68 1019.49 1234.59 Q1018.97 1234.51 1018.14 1233.7 Q1017.31 1232.87 1017.31 1231.41 Q1017.31 1227.3 1020.4 1224.03 Q1023.53 1220.76 1028.3 1220.76 Q1033.69 1220.76 1037.22 1223.98 Q1040.78 1227.16 1040.78 1232.15 Q1040.78 1233.9 1040.23 1235.51 Q1039.71 1237.09 1039 1238.32 Q1038.31 1239.56 1036.42 1241.54 Q1034.52 1243.51 1033 1244.92 Q1031.48 1246.33 1028.07 1249.31 L1021.84 1255.36 L1032.43 1255.36 Q1037.59 1255.36 1037.99 1254.91 Q1038.57 1254.07 1039.28 1249.68 L1040.78 1249.68 L1039.11 1259.9 L1017.31 1259.9 Z" fill="#ff7e00" fill-rule="evenodd" fill-opacity="1"></path><path clip-path="url(#clip680)" d="M 0 0 M603.506 629.555 Q603.506 638.245 597.644 643.532 Q591.783 648.779 582.355 648.779 Q575.305 648.779 570.099 643.573 Q569.444 644.393 568.05 645.951 Q566.656 647.508 565.96 648.287 L562.025 648.287 L562.025 597.911 Q562.025 595.534 561.164 595.083 Q560.303 594.632 556.245 594.632 L556.245 590.697 L571.083 590.041 L571.083 614.635 Q576.043 610.495 583.421 610.495 Q592.48 610.495 597.972 615.824 Q603.506 621.111 603.506 629.555 M592.767 629.555 Q592.767 627.792 592.726 626.809 Q592.726 625.784 592.521 623.857 Q592.316 621.931 591.947 620.742 Q591.619 619.554 590.84 618.037 Q590.102 616.52 589.037 615.66 Q587.971 614.758 586.29 614.143 Q584.651 613.528 582.519 613.528 Q579.199 613.528 576.289 615.045 Q573.42 616.561 571.616 618.898 L571.616 639.966 Q572.108 640.704 572.764 641.483 Q573.42 642.221 574.649 643.327 Q575.879 644.393 577.682 645.09 Q579.527 645.787 581.576 645.787 Q583.995 645.787 586.454 644.762 Q588.914 643.737 590.553 641.401 Q591.578 639.884 592.07 637.63 Q592.603 635.375 592.685 633.777 Q592.767 632.178 592.767 629.555 Z" fill="#1f78b4" fill-rule="evenodd" fill-opacity="1"></path><path clip-path="url(#clip680)" d="M 0 0 M612.002 638.003 L612.002 636.167 Q619.06 636.167 622.704 632.408 Q623.709 632.408 623.881 632.638 Q624.053 632.867 624.053 633.929 L624.053 666.896 Q624.053 668.647 624.914 669.192 Q625.774 669.737 629.533 669.737 L631.398 669.737 L631.398 671.545 Q629.332 671.372 621.872 671.372 Q614.412 671.372 612.375 671.545 L612.375 669.737 L614.24 669.737 Q617.941 669.737 618.831 669.22 Q619.72 668.675 619.72 666.896 L619.72 636.454 Q616.65 638.003 612.002 638.003 Z" fill="#1f78b4" fill-rule="evenodd" fill-opacity="1"></path><path clip-path="url(#clip680)" d="M 0 0 M1436.74 917.176 L1436.74 914.553 Q1446.82 914.553 1452.03 909.184 Q1453.46 909.184 1453.71 909.511 Q1453.96 909.839 1453.96 911.356 L1453.96 958.453 Q1453.96 960.953 1455.18 961.732 Q1456.41 962.511 1461.78 962.511 L1464.45 962.511 L1464.45 965.093 Q1461.5 964.847 1450.84 964.847 Q1440.18 964.847 1437.27 965.093 L1437.27 962.511 L1439.94 962.511 Q1445.22 962.511 1446.5 961.773 Q1447.77 960.994 1447.77 958.453 L1447.77 914.963 Q1443.38 917.176 1436.74 917.176 Z" fill="#fcbe6e" fill-rule="evenodd" fill-opacity="1"></path><path clip-path="url(#clip680)" d="M 0 0 M1471.08 963.74 Q1469.81 962.388 1469.81 960.625 Q1469.81 958.863 1471.08 957.592 Q1472.35 956.28 1474.28 956.28 Q1476.12 956.28 1477.35 957.51 Q1478.62 958.699 1478.62 960.666 Q1478.62 962.593 1477.27 963.863 Q1475.96 965.093 1474.28 965.093 Q1472.35 965.093 1471.08 963.74 Z" fill="#fcbe6e" fill-rule="evenodd" fill-opacity="1"></path><path clip-path="url(#clip680)" d="M 0 0 M1492.91 938.573 Q1492.91 925.374 1499.63 917.299 Q1506.35 909.184 1515 909.184 Q1520.04 909.184 1522.83 911.766 Q1525.66 914.307 1525.66 918.242 Q1525.66 920.415 1524.39 921.357 Q1523.12 922.3 1521.81 922.3 Q1520.29 922.3 1519.1 921.275 Q1517.91 920.251 1517.91 918.406 Q1517.91 914.635 1522.54 914.635 Q1520.37 911.274 1515.17 911.274 Q1513.57 911.274 1511.93 911.766 Q1510.29 912.217 1508.16 913.774 Q1506.03 915.332 1504.39 917.791 Q1502.75 920.251 1501.6 924.882 Q1500.45 929.514 1500.45 935.54 L1500.45 937.548 Q1503.89 929.227 1510.94 929.268 Q1517.99 929.268 1522.87 934.638 Q1527.75 940.007 1527.75 947.959 Q1527.75 956.116 1522.67 961.527 Q1517.58 966.937 1510.45 966.937 Q1507.26 966.937 1504.35 965.585 Q1501.48 964.273 1498.77 961.24 Q1496.11 958.207 1494.51 952.386 Q1492.91 946.566 1492.91 938.573 M1500.62 946.115 Q1500.62 954.354 1502.13 958.289 Q1502.38 958.945 1502.91 959.846 Q1503.48 960.748 1504.43 961.937 Q1505.41 963.084 1507.01 963.863 Q1508.61 964.601 1510.45 964.601 Q1516.07 964.601 1518.77 959.149 Q1520.21 956.116 1520.21 947.877 Q1520.21 939.475 1518.69 936.4 Q1516.11 931.195 1510.86 931.195 Q1507.34 931.195 1504.88 933.613 Q1502.46 936.032 1501.52 939.27 Q1500.62 942.508 1500.62 946.115 Z" fill="#fcbe6e" fill-rule="evenodd" fill-opacity="1"></path><path clip-path="url(#clip680)" d="M 0 0 M1530.98 925.62 L1533.73 908.364 L1535.82 908.364 Q1536.06 909.388 1536.47 909.839 Q1536.92 910.29 1539.3 910.659 Q1541.72 911.028 1546.6 911.028 L1566.97 911.028 Q1566.97 912.955 1566.23 913.979 L1554.88 929.924 Q1551.27 934.966 1549.67 944.27 Q1548.73 950.501 1548.77 958.043 L1548.77 962.306 Q1548.77 966.937 1544.87 966.937 Q1541.02 966.937 1541.02 962.306 Q1541.02 946.279 1551.35 930.744 Q1552.46 929.145 1556.52 923.448 Q1560.61 917.75 1560.78 917.504 L1543.4 917.504 Q1535.78 917.504 1535.16 917.996 Q1534.34 918.734 1533.07 925.62 L1530.98 925.62 Z" fill="#fcbe6e" fill-rule="evenodd" fill-opacity="1"></path><path clip-path="url(#clip680)" d="M 0 0 M1619.81 946.361 Q1619.81 955.051 1613.95 960.338 Q1608.09 965.585 1598.66 965.585 Q1591.61 965.585 1586.4 960.379 Q1585.75 961.199 1584.35 962.757 Q1582.96 964.314 1582.26 965.093 L1578.33 965.093 L1578.33 914.717 Q1578.33 912.34 1577.47 911.889 Q1576.61 911.438 1572.55 911.438 L1572.55 907.503 L1587.39 906.847 L1587.39 931.441 Q1592.35 927.301 1599.73 927.301 Q1608.78 927.301 1614.28 932.629 Q1619.81 937.917 1619.81 946.361 M1609.07 946.361 Q1609.07 944.598 1609.03 943.615 Q1609.03 942.59 1608.83 940.663 Q1608.62 938.737 1608.25 937.548 Q1607.92 936.359 1607.14 934.843 Q1606.41 933.326 1605.34 932.465 Q1604.28 931.564 1602.59 930.949 Q1600.96 930.334 1598.82 930.334 Q1595.5 930.334 1592.59 931.851 Q1589.72 933.367 1587.92 935.704 L1587.92 956.772 Q1588.41 957.51 1589.07 958.289 Q1589.72 959.026 1590.95 960.133 Q1592.18 961.199 1593.99 961.896 Q1595.83 962.593 1597.88 962.593 Q1600.3 962.593 1602.76 961.568 Q1605.22 960.543 1606.86 958.207 Q1607.88 956.69 1608.37 954.436 Q1608.91 952.181 1608.99 950.583 Q1609.07 948.984 1609.07 946.361 Z" fill="#fcbe6e" fill-rule="evenodd" fill-opacity="1"></path><path clip-path="url(#clip680)" d="M 0 0 M1628.31 988.35 Q1628.31 987.289 1628.39 986.973 Q1628.51 986.658 1628.97 986.17 L1640.24 973.602 Q1646.41 966.659 1646.41 960.605 Q1646.41 956.674 1644.35 953.862 Q1642.31 951.05 1638.55 951.05 Q1635.97 951.05 1633.79 952.628 Q1631.61 954.206 1630.6 957.018 Q1630.77 956.961 1631.38 956.961 Q1632.84 956.961 1633.64 957.879 Q1634.48 958.797 1634.48 960.031 Q1634.48 961.609 1633.44 962.384 Q1632.44 963.13 1631.43 963.13 Q1631.03 963.13 1630.49 963.044 Q1629.97 962.958 1629.14 962.154 Q1628.31 961.322 1628.31 959.859 Q1628.31 955.756 1631.41 952.485 Q1634.53 949.214 1639.3 949.214 Q1644.69 949.214 1648.22 952.427 Q1651.78 955.612 1651.78 960.605 Q1651.78 962.355 1651.23 963.962 Q1650.72 965.54 1650 966.774 Q1649.31 968.007 1647.42 969.987 Q1645.52 971.967 1644 973.373 Q1642.48 974.779 1639.07 977.763 L1632.84 983.817 L1643.43 983.817 Q1648.59 983.817 1648.99 983.358 Q1649.57 982.526 1650.29 978.136 L1651.78 978.136 L1650.11 988.35 L1628.31 988.35 Z" fill="#fcbe6e" fill-rule="evenodd" fill-opacity="1"></path><path clip-path="url(#clip680)" d="M 0 0 M303.058 938.245 Q303.058 925.907 306.173 919.185 Q310.518 909.184 320.766 909.184 Q322.938 909.184 325.192 909.798 Q327.488 910.372 330.357 912.627 Q333.267 914.881 335.03 918.57 Q338.391 925.702 338.391 938.245 Q338.391 950.501 335.276 957.182 Q330.726 966.937 320.684 966.937 Q316.913 966.937 313.06 965.011 Q309.248 963.084 306.829 958.453 Q303.058 951.525 303.058 938.245 M310.026 937.22 Q310.026 949.886 310.928 954.928 Q311.953 960.379 314.74 962.757 Q317.568 965.093 320.684 965.093 Q324.045 965.093 326.832 962.593 Q329.66 960.051 330.521 954.6 Q331.464 949.23 331.423 937.22 Q331.423 925.538 330.603 920.865 Q329.496 915.414 326.545 913.241 Q323.635 911.028 320.684 911.028 Q319.577 911.028 318.388 911.356 Q317.24 911.684 315.56 912.627 Q313.879 913.569 312.568 915.906 Q311.297 918.242 310.682 921.767 Q310.026 926.317 310.026 937.22 Z" fill="#a6cee2" fill-rule="evenodd" fill-opacity="1"></path><path clip-path="url(#clip680)" d="M 0 0 M345.899 963.74 Q344.628 962.388 344.628 960.625 Q344.628 958.863 345.899 957.592 Q347.17 956.28 349.096 956.28 Q350.941 956.28 352.17 957.51 Q353.441 958.699 353.441 960.666 Q353.441 962.593 352.089 963.863 Q350.777 965.093 349.096 965.093 Q347.17 965.093 345.899 963.74 Z" fill="#a6cee2" fill-rule="evenodd" fill-opacity="1"></path><path clip-path="url(#clip680)" d="M 0 0 M367.728 938.573 Q367.728 925.374 374.45 917.299 Q381.172 909.184 389.821 909.184 Q394.862 909.184 397.65 911.766 Q400.478 914.307 400.478 918.242 Q400.478 920.415 399.207 921.357 Q397.937 922.3 396.625 922.3 Q395.108 922.3 393.92 921.275 Q392.731 920.251 392.731 918.406 Q392.731 914.635 397.363 914.635 Q395.19 911.274 389.985 911.274 Q388.386 911.274 386.747 911.766 Q385.107 912.217 382.976 913.774 Q380.844 915.332 379.205 917.791 Q377.565 920.251 376.417 924.882 Q375.27 929.514 375.27 935.54 L375.27 937.548 Q378.713 929.227 385.763 929.268 Q392.813 929.268 397.691 934.638 Q402.568 940.007 402.568 947.959 Q402.568 956.116 397.486 961.527 Q392.403 966.937 385.271 966.937 Q382.074 966.937 379.164 965.585 Q376.294 964.273 373.589 961.24 Q370.925 958.207 369.326 952.386 Q367.728 946.566 367.728 938.573 M375.434 946.115 Q375.434 954.354 376.95 958.289 Q377.196 958.945 377.729 959.846 Q378.303 960.748 379.246 961.937 Q380.229 963.084 381.828 963.863 Q383.426 964.601 385.271 964.601 Q390.887 964.601 393.592 959.149 Q395.026 956.116 395.026 947.877 Q395.026 939.475 393.51 936.4 Q390.928 931.195 385.681 931.195 Q382.156 931.195 379.696 933.613 Q377.278 936.032 376.335 939.27 Q375.434 942.508 375.434 946.115 Z" fill="#a6cee2" fill-rule="evenodd" fill-opacity="1"></path><path clip-path="url(#clip680)" d="M 0 0 M405.798 925.62 L408.544 908.364 L410.635 908.364 Q410.881 909.388 411.29 909.839 Q411.741 910.29 414.119 910.659 Q416.537 911.028 421.415 911.028 L441.786 911.028 Q441.786 912.955 441.049 913.979 L429.695 929.924 Q426.088 934.966 424.489 944.27 Q423.546 950.501 423.587 958.043 L423.587 962.306 Q423.587 966.937 419.693 966.937 Q415.84 966.937 415.84 962.306 Q415.84 946.279 426.17 930.744 Q427.276 929.145 431.334 923.448 Q435.433 917.75 435.597 917.504 L418.218 917.504 Q410.594 917.504 409.979 917.996 Q409.159 918.734 407.888 925.62 L405.798 925.62 Z" fill="#a6cee2" fill-rule="evenodd" fill-opacity="1"></path><path clip-path="url(#clip680)" d="M 0 0 M494.629 946.361 Q494.629 955.051 488.767 960.338 Q482.906 965.585 473.478 965.585 Q466.428 965.585 461.223 960.379 Q460.567 961.199 459.173 962.757 Q457.779 964.314 457.083 965.093 L453.148 965.093 L453.148 914.717 Q453.148 912.34 452.287 911.889 Q451.426 911.438 447.368 911.438 L447.368 907.503 L462.206 906.847 L462.206 931.441 Q467.166 927.301 474.544 927.301 Q483.603 927.301 489.095 932.629 Q494.629 937.917 494.629 946.361 M483.89 946.361 Q483.89 944.598 483.849 943.615 Q483.849 942.59 483.644 940.663 Q483.439 938.737 483.07 937.548 Q482.742 936.359 481.963 934.843 Q481.225 933.326 480.16 932.465 Q479.094 931.564 477.413 930.949 Q475.774 930.334 473.642 930.334 Q470.322 930.334 467.412 931.851 Q464.543 933.367 462.739 935.704 L462.739 956.772 Q463.231 957.51 463.887 958.289 Q464.543 959.026 465.772 960.133 Q467.002 961.199 468.806 961.896 Q470.65 962.593 472.7 962.593 Q475.118 962.593 477.577 961.568 Q480.037 960.543 481.676 958.207 Q482.701 956.69 483.193 954.436 Q483.726 952.181 483.808 950.583 Q483.89 948.984 483.89 946.361 Z" fill="#a6cee2" fill-rule="evenodd" fill-opacity="1"></path><path clip-path="url(#clip680)" d="M 0 0 M503.125 954.809 L503.125 952.973 Q510.183 952.973 513.827 949.214 Q514.832 949.214 515.004 949.443 Q515.176 949.673 515.176 950.735 L515.176 983.702 Q515.176 985.452 516.037 985.998 Q516.897 986.543 520.656 986.543 L522.521 986.543 L522.521 988.35 Q520.455 988.178 512.995 988.178 Q505.535 988.178 503.498 988.35 L503.498 986.543 L505.363 986.543 Q509.064 986.543 509.954 986.026 Q510.843 985.481 510.843 983.702 L510.843 953.259 Q507.773 954.809 503.125 954.809 Z" fill="#a6cee2" fill-rule="evenodd" fill-opacity="1"></path></svg>