<svg xmlns="http://www.w3.org/2000/svg" xmlns:xlink="http://www.w3.org/1999/xlink" width="600" height="400" viewBox="0 0 2400 1600">
<defs>
  <clipPath id="clip350">
    <rect x="0" y="0" width="2400" height="1600"></rect>
  </clipPath>
</defs>
<path clip-path="url(#clip350)" d="
M0 1600 L2400 1600 L2400 0 L0 0  Z
  " fill="#ffffff" fill-rule="evenodd" fill-opacity="1"></path>
<defs>
  <clipPath id="clip351">
    <rect x="480" y="0" width="1681" height="1600"></rect>
  </clipPath>
</defs>
<path clip-path="url(#clip350)" d="
M147.478 1486.45 L2352.76 1486.45 L2352.76 47.2441 L147.478 47.2441  Z
  " fill="#ffffff" fill-rule="evenodd" fill-opacity="1"></path>
<defs>
  <clipPath id="clip352">
    <rect x="147" y="47" width="2206" height="1440"></rect>
  </clipPath>
</defs>
<polyline clip-path="url(#clip352)" style="stroke:#000000; stroke-linecap:butt; stroke-linejoin:round; stroke-width:2; stroke-opacity:0.1; fill:none" points="
  401.53,1486.45 401.53,47.2441 
  "></polyline>
<polyline clip-path="url(#clip352)" style="stroke:#000000; stroke-linecap:butt; stroke-linejoin:round; stroke-width:2; stroke-opacity:0.1; fill:none" points="
  1080.4,1486.45 1080.4,47.2441 
  "></polyline>
<polyline clip-path="url(#clip352)" style="stroke:#000000; stroke-linecap:butt; stroke-linejoin:round; stroke-width:2; stroke-opacity:0.1; fill:none" points="
  1419.83,1486.45 1419.83,47.2441 
  "></polyline>
<polyline clip-path="url(#clip352)" style="stroke:#000000; stroke-linecap:butt; stroke-linejoin:round; stroke-width:2; stroke-opacity:0.1; fill:none" points="
  1759.27,1486.45 1759.27,47.2441 
  "></polyline>
<polyline clip-path="url(#clip352)" style="stroke:#000000; stroke-linecap:butt; stroke-linejoin:round; stroke-width:2; stroke-opacity:0.1; fill:none" points="
  2098.7,1486.45 2098.7,47.2441 
  "></polyline>
<polyline clip-path="url(#clip350)" style="stroke:#000000; stroke-linecap:butt; stroke-linejoin:round; stroke-width:4; stroke-opacity:1; fill:none" points="
  147.478,766.846 2352.76,766.846 
  "></polyline>
<polyline clip-path="url(#clip350)" style="stroke:#000000; stroke-linecap:butt; stroke-linejoin:round; stroke-width:4; stroke-opacity:1; fill:none" points="
  401.53,785.744 401.53,747.948 
  "></polyline>
<polyline clip-path="url(#clip350)" style="stroke:#000000; stroke-linecap:butt; stroke-linejoin:round; stroke-width:4; stroke-opacity:1; fill:none" points="
  1080.4,785.744 1080.4,747.948 
  "></polyline>
<polyline clip-path="url(#clip350)" style="stroke:#000000; stroke-linecap:butt; stroke-linejoin:round; stroke-width:4; stroke-opacity:1; fill:none" points="
  1419.83,785.744 1419.83,747.948 
  "></polyline>
<polyline clip-path="url(#clip350)" style="stroke:#000000; stroke-linecap:butt; stroke-linejoin:round; stroke-width:4; stroke-opacity:1; fill:none" points="
  1759.27,785.744 1759.27,747.948 
  "></polyline>
<polyline clip-path="url(#clip350)" style="stroke:#000000; stroke-linecap:butt; stroke-linejoin:round; stroke-width:4; stroke-opacity:1; fill:none" points="
  2098.7,785.744 2098.7,747.948 
  "></polyline>
<path clip-path="url(#clip350)" d="M371.287 810.689 L400.963 810.689 L400.963 814.625 L371.287 814.625 L371.287 810.689 Z" fill="#000000" fill-rule="evenodd" fill-opacity="1"></path><path clip-path="url(#clip350)" d="M411.865 823.583 L419.504 823.583 L419.504 797.217 L411.194 798.884 L411.194 794.625 L419.458 792.958 L424.134 792.958 L424.134 823.583 L431.773 823.583 L431.773 827.518 L411.865 827.518 L411.865 823.583 Z" fill="#000000" fill-rule="evenodd" fill-opacity="1"></path><path clip-path="url(#clip350)" d="M1070.78 823.583 L1078.42 823.583 L1078.42 797.217 L1070.11 798.884 L1070.11 794.625 L1078.37 792.958 L1083.05 792.958 L1083.05 823.583 L1090.69 823.583 L1090.69 827.518 L1070.78 827.518 L1070.78 823.583 Z" fill="#000000" fill-rule="evenodd" fill-opacity="1"></path><path clip-path="url(#clip350)" d="M1414.49 823.583 L1430.81 823.583 L1430.81 827.518 L1408.86 827.518 L1408.86 823.583 Q1411.52 820.828 1416.11 816.199 Q1420.71 811.546 1421.89 810.203 Q1424.14 807.68 1425.02 805.944 Q1425.92 804.185 1425.92 802.495 Q1425.92 799.74 1423.98 798.004 Q1422.06 796.268 1418.95 796.268 Q1416.76 796.268 1414.3 797.032 Q1411.87 797.796 1409.09 799.347 L1409.09 794.625 Q1411.92 793.49 1414.37 792.912 Q1416.83 792.333 1418.86 792.333 Q1424.23 792.333 1427.43 795.018 Q1430.62 797.703 1430.62 802.194 Q1430.62 804.324 1429.81 806.245 Q1429.02 808.143 1426.92 810.736 Q1426.34 811.407 1423.24 814.625 Q1420.14 817.819 1414.49 823.583 Z" fill="#000000" fill-rule="evenodd" fill-opacity="1"></path><path clip-path="url(#clip350)" d="M1763.52 808.884 Q1766.87 809.601 1768.75 811.87 Q1770.65 814.138 1770.65 817.472 Q1770.65 822.587 1767.13 825.388 Q1763.61 828.189 1757.13 828.189 Q1754.95 828.189 1752.64 827.749 Q1750.35 827.333 1747.89 826.476 L1747.89 821.962 Q1749.84 823.097 1752.15 823.675 Q1754.47 824.254 1756.99 824.254 Q1761.39 824.254 1763.68 822.518 Q1765.99 820.782 1765.99 817.472 Q1765.99 814.416 1763.84 812.703 Q1761.71 810.967 1757.89 810.967 L1753.86 810.967 L1753.86 807.125 L1758.08 807.125 Q1761.53 807.125 1763.35 805.759 Q1765.18 804.37 1765.18 801.777 Q1765.18 799.115 1763.29 797.703 Q1761.41 796.268 1757.89 796.268 Q1755.97 796.268 1753.77 796.685 Q1751.57 797.101 1748.93 797.981 L1748.93 793.814 Q1751.6 793.074 1753.91 792.703 Q1756.25 792.333 1758.31 792.333 Q1763.63 792.333 1766.73 794.764 Q1769.84 797.171 1769.84 801.291 Q1769.84 804.162 1768.19 806.152 Q1766.55 808.12 1763.52 808.884 Z" fill="#000000" fill-rule="evenodd" fill-opacity="1"></path><path clip-path="url(#clip350)" d="M2101.71 797.032 L2089.91 815.481 L2101.71 815.481 L2101.71 797.032 M2100.49 792.958 L2106.37 792.958 L2106.37 815.481 L2111.3 815.481 L2111.3 819.37 L2106.37 819.37 L2106.37 827.518 L2101.71 827.518 L2101.71 819.37 L2086.11 819.37 L2086.11 814.856 L2100.49 792.958 Z" fill="#000000" fill-rule="evenodd" fill-opacity="1"></path><polyline clip-path="url(#clip352)" style="stroke:#000000; stroke-linecap:butt; stroke-linejoin:round; stroke-width:2; stroke-opacity:0.1; fill:none" points="
  147.478,1445.72 2352.76,1445.72 
  "></polyline>
<polyline clip-path="url(#clip352)" style="stroke:#000000; stroke-linecap:butt; stroke-linejoin:round; stroke-width:2; stroke-opacity:0.1; fill:none" points="
  147.478,1106.28 2352.76,1106.28 
  "></polyline>
<polyline clip-path="url(#clip352)" style="stroke:#000000; stroke-linecap:butt; stroke-linejoin:round; stroke-width:2; stroke-opacity:0.1; fill:none" points="
  147.478,427.411 2352.76,427.411 
  "></polyline>
<polyline clip-path="url(#clip352)" style="stroke:#000000; stroke-linecap:butt; stroke-linejoin:round; stroke-width:2; stroke-opacity:0.1; fill:none" points="
  147.478,87.9763 2352.76,87.9763 
  "></polyline>
<polyline clip-path="url(#clip350)" style="stroke:#000000; stroke-linecap:butt; stroke-linejoin:round; stroke-width:4; stroke-opacity:1; fill:none" points="
  740.965,1486.45 740.965,47.2441 
  "></polyline>
<polyline clip-path="url(#clip350)" style="stroke:#000000; stroke-linecap:butt; stroke-linejoin:round; stroke-width:4; stroke-opacity:1; fill:none" points="
  722.067,1445.72 759.862,1445.72 
  "></polyline>
<polyline clip-path="url(#clip350)" style="stroke:#000000; stroke-linecap:butt; stroke-linejoin:round; stroke-width:4; stroke-opacity:1; fill:none" points="
  722.067,1106.28 759.862,1106.28 
  "></polyline>
<polyline clip-path="url(#clip350)" style="stroke:#000000; stroke-linecap:butt; stroke-linejoin:round; stroke-width:4; stroke-opacity:1; fill:none" points="
  722.067,427.411 759.862,427.411 
  "></polyline>
<polyline clip-path="url(#clip350)" style="stroke:#000000; stroke-linecap:butt; stroke-linejoin:round; stroke-width:4; stroke-opacity:1; fill:none" points="
  722.067,87.9763 759.862,87.9763 
  "></polyline>
<path clip-path="url(#clip350)" d="M644.849 1446.17 L674.525 1446.17 L674.525 1450.1 L644.849 1450.1 L644.849 1446.17 Z" fill="#000000" fill-rule="evenodd" fill-opacity="1"></path><path clip-path="url(#clip350)" d="M688.645 1459.06 L704.965 1459.06 L704.965 1463 L683.02 1463 L683.02 1459.06 Q685.682 1456.31 690.266 1451.68 Q694.872 1447.02 696.053 1445.68 Q698.298 1443.16 699.178 1441.42 Q700.08 1439.66 700.08 1437.97 Q700.08 1435.22 698.136 1433.48 Q696.215 1431.75 693.113 1431.75 Q690.914 1431.75 688.46 1432.51 Q686.03 1433.27 683.252 1434.82 L683.252 1430.1 Q686.076 1428.97 688.53 1428.39 Q690.983 1427.81 693.02 1427.81 Q698.391 1427.81 701.585 1430.5 Q704.779 1433.18 704.779 1437.67 Q704.779 1439.8 703.969 1441.72 Q703.182 1443.62 701.076 1446.21 Q700.497 1446.88 697.395 1450.1 Q694.293 1453.3 688.645 1459.06 Z" fill="#000000" fill-rule="evenodd" fill-opacity="1"></path><path clip-path="url(#clip350)" d="M644.479 1106.73 L674.155 1106.73 L674.155 1110.67 L644.479 1110.67 L644.479 1106.73 Z" fill="#000000" fill-rule="evenodd" fill-opacity="1"></path><path clip-path="url(#clip350)" d="M685.057 1119.63 L692.696 1119.63 L692.696 1093.26 L684.386 1094.93 L684.386 1090.67 L692.65 1089 L697.326 1089 L697.326 1119.63 L704.965 1119.63 L704.965 1123.56 L685.057 1123.56 L685.057 1119.63 Z" fill="#000000" fill-rule="evenodd" fill-opacity="1"></path><path clip-path="url(#clip350)" d="M685.057 440.756 L692.696 440.756 L692.696 414.39 L684.386 416.057 L684.386 411.798 L692.65 410.131 L697.326 410.131 L697.326 440.756 L704.965 440.756 L704.965 444.691 L685.057 444.691 L685.057 440.756 Z" fill="#000000" fill-rule="evenodd" fill-opacity="1"></path><path clip-path="url(#clip350)" d="M688.645 101.321 L704.965 101.321 L704.965 105.256 L683.02 105.256 L683.02 101.321 Q685.682 98.5665 690.266 93.9369 Q694.872 89.2841 696.053 87.9416 Q698.298 85.4184 699.178 83.6823 Q700.08 81.9231 700.08 80.2333 Q700.08 77.4786 698.136 75.7425 Q696.215 74.0064 693.113 74.0064 Q690.914 74.0064 688.46 74.7703 Q686.03 75.5342 683.252 77.0851 L683.252 72.3629 Q686.076 71.2287 688.53 70.65 Q690.983 70.0713 693.02 70.0713 Q698.391 70.0713 701.585 72.7565 Q704.779 75.4416 704.779 79.9323 Q704.779 82.062 703.969 83.9832 Q703.182 85.8814 701.076 88.474 Q700.497 89.1453 697.395 92.3628 Q694.293 95.5573 688.645 101.321 Z" fill="#000000" fill-rule="evenodd" fill-opacity="1"></path><polyline clip-path="url(#clip352)" style="stroke:#1f78b4; stroke-linecap:butt; stroke-linejoin:round; stroke-width:16; stroke-opacity:1; fill:none" points="
  740.965,766.846 1080.4,87.9763 
  "></polyline>
<polyline clip-path="url(#clip352)" style="stroke:#1f78b4; stroke-linecap:butt; stroke-linejoin:round; stroke-width:16; stroke-opacity:1; fill:none" points="
  1048.2,112.126 1080.4,87.9763 1080.4,128.226 
  "></polyline>
<polyline clip-path="url(#clip352)" style="stroke:#1f78b4; stroke-linecap:butt; stroke-linejoin:round; stroke-width:16; stroke-opacity:1; fill:none" points="
  1080.4,87.9763 740.965,766.846 
  "></polyline>
<polyline clip-path="url(#clip352)" style="stroke:#a6cee2; stroke-linecap:butt; stroke-linejoin:round; stroke-width:16; stroke-opacity:1; fill:none" points="
  740.965,766.846 401.53,1445.72 
  "></polyline>
<polyline clip-path="url(#clip352)" style="stroke:#a6cee2; stroke-linecap:butt; stroke-linejoin:round; stroke-width:16; stroke-opacity:1; fill:none" points="
  433.729,1421.57 401.53,1445.72 401.53,1405.47 
  "></polyline>
<polyline clip-path="url(#clip352)" style="stroke:#a6cee2; stroke-linecap:butt; stroke-linejoin:round; stroke-width:16; stroke-opacity:1; fill:none" points="
  401.53,1445.72 740.965,766.846 
  "></polyline>
<polyline clip-path="url(#clip352)" style="stroke:#fcbe6e; stroke-linecap:butt; stroke-linejoin:round; stroke-width:16; stroke-opacity:1; fill:none" points="
  740.965,766.846 2098.7,87.9763 
  "></polyline>
<polyline clip-path="url(#clip352)" style="stroke:#fcbe6e; stroke-linecap:butt; stroke-linejoin:round; stroke-width:16; stroke-opacity:1; fill:none" points="
  2058.45,87.9763 2098.7,87.9763 2074.55,120.176 
  "></polyline>
<polyline clip-path="url(#clip352)" style="stroke:#fcbe6e; stroke-linecap:butt; stroke-linejoin:round; stroke-width:16; stroke-opacity:1; fill:none" points="
  2098.7,87.9763 740.965,766.846 
  "></polyline>
<polyline clip-path="url(#clip352)" style="stroke:#ff7e00; stroke-linecap:butt; stroke-linejoin:round; stroke-width:16; stroke-opacity:1; fill:none" points="
  740.965,766.846 1419.83,427.411 
  "></polyline>
<polyline clip-path="url(#clip352)" style="stroke:#ff7e00; stroke-linecap:butt; stroke-linejoin:round; stroke-width:16; stroke-opacity:1; fill:none" points="
  1379.59,427.411 1419.83,427.411 1395.68,459.611 
  "></polyline>
<polyline clip-path="url(#clip352)" style="stroke:#ff7e00; stroke-linecap:butt; stroke-linejoin:round; stroke-width:16; stroke-opacity:1; fill:none" points="
  1419.83,427.411 740.965,766.846 
  "></polyline>
<polyline clip-path="url(#clip352)" style="stroke:#339f2c; stroke-linecap:butt; stroke-linejoin:round; stroke-width:16; stroke-opacity:1; fill:none" points="
  740.965,766.846 1759.27,766.846 
  "></polyline>
<polyline clip-path="url(#clip352)" style="stroke:#339f2c; stroke-linecap:butt; stroke-linejoin:round; stroke-width:16; stroke-opacity:1; fill:none" points="
  1723.27,748.846 1759.27,766.846 1723.27,784.846 
  "></polyline>
<polyline clip-path="url(#clip352)" style="stroke:#339f2c; stroke-linecap:butt; stroke-linejoin:round; stroke-width:16; stroke-opacity:1; fill:none" points="
  1759.27,766.846 740.965,766.846 
  "></polyline>
<polyline clip-path="url(#clip352)" style="stroke:#a6cee2; stroke-linecap:butt; stroke-linejoin:round; stroke-width:16; stroke-opacity:1; fill:none" stroke-dasharray="8, 16" points="
  401.53,1445.72 1759.27,766.846 
  "></polyline>
<polyline clip-path="url(#clip352)" style="stroke:#fcbe6e; stroke-linecap:butt; stroke-linejoin:round; stroke-width:16; stroke-opacity:1; fill:none" stroke-dasharray="8, 16" points="
  2098.7,87.9763 1759.27,766.846 
  "></polyline>
<path clip-path="url(#clip350)" d="M915.895 231.828 Q915.813 232.238 915.649 232.975 Q915.485 233.672 914.748 235.886 Q914.01 238.099 913.026 240.354 Q912.083 242.567 910.239 245.682 Q908.435 248.756 906.222 251.544 Q905.607 252.281 905.484 252.732 Q905.402 253.142 905.402 254.495 Q905.402 263.021 907.984 263.021 Q908.107 263.021 908.312 263.021 Q908.558 262.98 909.173 262.775 Q909.829 262.529 910.403 262.16 Q910.977 261.75 911.632 260.93 Q912.288 260.069 912.698 258.922 Q913.067 258.102 913.805 258.102 Q914.789 258.102 914.789 258.922 Q914.789 260.397 912.739 262.652 Q910.69 264.906 907.738 264.906 Q904.91 264.906 902.902 263.062 Q900.934 261.176 900.114 257.815 Q891.261 264.906 882.407 264.906 Q876.177 264.906 872.488 260.848 Q868.799 256.749 868.799 250.683 Q868.799 244.862 871.996 239.329 Q875.234 233.795 880.481 230.352 Q885.768 226.868 891.384 226.868 Q893.351 226.868 895.237 227.401 Q897.122 227.893 899.008 229.163 Q900.893 230.434 902.287 232.361 Q903.68 234.287 904.541 237.32 Q905.402 240.354 905.402 244.166 L905.402 249.371 Q910.813 242.526 913.641 232.73 Q914.051 231.254 914.297 231.09 Q914.461 230.967 914.871 230.967 Q915.28 230.967 915.526 231.213 Q915.813 231.418 915.854 231.623 L915.895 231.828 M899.787 255.643 Q899.623 254.208 899.623 246.256 Q899.623 244.739 899.623 243.92 Q899.623 243.059 899.541 241.419 Q899.459 239.78 899.295 238.755 Q899.172 237.73 898.885 236.255 Q898.598 234.779 898.188 233.836 Q897.778 232.894 897.122 231.828 Q896.507 230.762 895.688 230.147 Q894.909 229.532 893.761 229.123 Q892.654 228.713 891.302 228.713 Q889.621 228.713 887.859 229.327 Q886.137 229.901 883.924 231.746 Q881.71 233.549 879.866 236.419 Q877.939 239.452 876.464 245.026 Q875.029 250.56 875.029 253.88 Q875.029 258.061 876.955 260.561 Q878.882 263.021 882.571 263.021 Q891.384 263.021 899.787 255.643 Z" fill="#1f78b4" fill-rule="evenodd" fill-opacity="1"></path><path clip-path="url(#clip350)" d="M924.399 254.617 L924.399 252.781 Q931.458 252.781 935.102 249.022 Q936.106 249.022 936.278 249.251 Q936.45 249.481 936.45 250.543 L936.45 283.51 Q936.45 285.26 937.311 285.806 Q938.172 286.351 941.93 286.351 L943.795 286.351 L943.795 288.158 Q941.73 287.986 934.269 287.986 Q926.809 287.986 924.772 288.158 L924.772 286.351 L926.637 286.351 Q930.339 286.351 931.228 285.834 Q932.118 285.289 932.118 283.51 L932.118 253.067 Q929.047 254.617 924.399 254.617 Z" fill="#1f78b4" fill-rule="evenodd" fill-opacity="1"></path><path clip-path="url(#clip350)" d="M484.56 988.545 Q485.051 989.037 485.051 989.734 Q485.051 990.43 484.56 990.922 Q484.068 991.414 483.371 991.414 L430.823 991.414 Q430.126 991.414 429.634 990.922 Q429.142 990.43 429.142 989.734 Q429.142 989.037 429.634 988.545 Q430.126 988.053 430.823 988.053 L483.371 988.053 Q484.068 988.053 484.56 988.545 Z" fill="#a6cee2" fill-rule="evenodd" fill-opacity="1"></path><path clip-path="url(#clip350)" d="M540.908 978.584 Q540.826 978.994 540.662 979.732 Q540.498 980.429 539.76 982.642 Q539.023 984.856 538.039 987.11 Q537.096 989.324 535.252 992.439 Q533.448 995.513 531.235 998.3 Q530.62 999.038 530.497 999.489 Q530.415 999.899 530.415 1001.25 Q530.415 1009.78 532.997 1009.78 Q533.12 1009.78 533.325 1009.78 Q533.571 1009.74 534.186 1009.53 Q534.842 1009.29 535.416 1008.92 Q535.989 1008.51 536.645 1007.69 Q537.301 1006.83 537.711 1005.68 Q538.08 1004.86 538.818 1004.86 Q539.801 1004.86 539.801 1005.68 Q539.801 1007.15 537.752 1009.41 Q535.703 1011.66 532.751 1011.66 Q529.923 1011.66 527.915 1009.82 Q525.947 1007.93 525.127 1004.57 Q516.274 1011.66 507.42 1011.66 Q501.19 1011.66 497.501 1007.6 Q493.812 1003.51 493.812 997.44 Q493.812 991.619 497.009 986.086 Q500.247 980.552 505.493 977.109 Q510.781 973.625 516.397 973.625 Q518.364 973.625 520.25 974.158 Q522.135 974.65 524.021 975.92 Q525.906 977.191 527.3 979.117 Q528.693 981.044 529.554 984.077 Q530.415 987.11 530.415 990.922 L530.415 996.128 Q535.826 989.283 538.654 979.486 Q539.064 978.011 539.31 977.847 Q539.474 977.724 539.883 977.724 Q540.293 977.724 540.539 977.97 Q540.826 978.175 540.867 978.38 L540.908 978.584 M524.799 1002.4 Q524.635 1000.96 524.635 993.013 Q524.635 991.496 524.635 990.676 Q524.635 989.816 524.553 988.176 Q524.471 986.536 524.308 985.512 Q524.185 984.487 523.898 983.011 Q523.611 981.536 523.201 980.593 Q522.791 979.65 522.135 978.584 Q521.52 977.519 520.7 976.904 Q519.922 976.289 518.774 975.879 Q517.667 975.469 516.315 975.469 Q514.634 975.469 512.872 976.084 Q511.15 976.658 508.937 978.502 Q506.723 980.306 504.879 983.175 Q502.952 986.208 501.477 991.783 Q500.042 997.317 500.042 1000.64 Q500.042 1004.82 501.968 1007.32 Q503.895 1009.78 507.584 1009.78 Q516.397 1009.78 524.799 1002.4 Z" fill="#a6cee2" fill-rule="evenodd" fill-opacity="1"></path><path clip-path="url(#clip350)" d="M549.412 1001.37 L549.412 999.537 Q556.47 999.537 560.114 995.779 Q561.119 995.779 561.291 996.008 Q561.463 996.238 561.463 997.299 L561.463 1030.27 Q561.463 1032.02 562.324 1032.56 Q563.185 1033.11 566.943 1033.11 L568.808 1033.11 L568.808 1034.92 Q566.742 1034.74 559.282 1034.74 Q551.822 1034.74 549.785 1034.92 L549.785 1033.11 L551.65 1033.11 Q555.351 1033.11 556.241 1032.59 Q557.13 1032.05 557.13 1030.27 L557.13 999.824 Q554.06 1001.37 549.412 1001.37 Z" fill="#a6cee2" fill-rule="evenodd" fill-opacity="1"></path><path clip-path="url(#clip350)" d="M1185.43 401.545 Q1185.34 401.955 1185.18 402.693 Q1185.02 403.39 1184.28 405.603 Q1183.54 407.817 1182.56 410.071 Q1181.61 412.284 1179.77 415.4 Q1177.97 418.474 1175.75 421.261 Q1175.14 421.999 1175.01 422.45 Q1174.93 422.86 1174.93 424.212 Q1174.93 432.738 1177.51 432.738 Q1177.64 432.738 1177.84 432.738 Q1178.09 432.697 1178.7 432.492 Q1179.36 432.246 1179.93 431.877 Q1180.51 431.467 1181.16 430.648 Q1181.82 429.787 1182.23 428.639 Q1182.6 427.819 1183.33 427.819 Q1184.32 427.819 1184.32 428.639 Q1184.32 430.115 1182.27 432.369 Q1180.22 434.624 1177.27 434.624 Q1174.44 434.624 1172.43 432.779 Q1170.46 430.894 1169.64 427.532 Q1160.79 434.624 1151.94 434.624 Q1145.71 434.624 1142.02 430.566 Q1138.33 426.467 1138.33 420.4 Q1138.33 414.58 1141.53 409.046 Q1144.76 403.513 1150.01 400.07 Q1155.3 396.586 1160.91 396.586 Q1162.88 396.586 1164.77 397.118 Q1166.65 397.61 1168.54 398.881 Q1170.42 400.152 1171.82 402.078 Q1173.21 404.005 1174.07 407.038 Q1174.93 410.071 1174.93 413.883 L1174.93 419.089 Q1180.34 412.243 1183.17 402.447 Q1183.58 400.971 1183.83 400.807 Q1183.99 400.684 1184.4 400.684 Q1184.81 400.684 1185.06 400.93 Q1185.34 401.135 1185.38 401.34 L1185.43 401.545 M1169.32 425.36 Q1169.15 423.925 1169.15 415.973 Q1169.15 414.457 1169.15 413.637 Q1169.15 412.776 1169.07 411.137 Q1168.99 409.497 1168.82 408.472 Q1168.7 407.448 1168.41 405.972 Q1168.13 404.496 1167.72 403.554 Q1167.31 402.611 1166.65 401.545 Q1166.04 400.48 1165.22 399.865 Q1164.44 399.25 1163.29 398.84 Q1162.18 398.43 1160.83 398.43 Q1159.15 398.43 1157.39 399.045 Q1155.67 399.619 1153.45 401.463 Q1151.24 403.267 1149.4 406.136 Q1147.47 409.169 1145.99 414.744 Q1144.56 420.277 1144.56 423.597 Q1144.56 427.778 1146.49 430.279 Q1148.41 432.738 1152.1 432.738 Q1160.91 432.738 1169.32 425.36 Z" fill="#ff7e00" fill-rule="evenodd" fill-opacity="1"></path><path clip-path="url(#clip350)" d="M1193.93 457.876 Q1193.93 456.814 1194.02 456.499 Q1194.13 456.183 1194.59 455.695 L1205.87 443.128 Q1212.03 436.184 1212.03 430.13 Q1212.03 426.199 1209.97 423.387 Q1207.93 420.576 1204.17 420.576 Q1201.59 420.576 1199.41 422.154 Q1197.23 423.732 1196.22 426.544 Q1196.4 426.486 1197 426.486 Q1198.46 426.486 1199.27 427.404 Q1200.1 428.323 1200.1 429.556 Q1200.1 431.134 1199.07 431.909 Q1198.06 432.655 1197.06 432.655 Q1196.65 432.655 1196.11 432.569 Q1195.59 432.483 1194.76 431.68 Q1193.93 430.847 1193.93 429.384 Q1193.93 425.281 1197.03 422.01 Q1200.16 418.739 1204.92 418.739 Q1210.31 418.739 1213.84 421.953 Q1217.4 425.138 1217.4 430.13 Q1217.4 431.88 1216.85 433.487 Q1216.34 435.065 1215.62 436.299 Q1214.93 437.533 1213.04 439.513 Q1211.14 441.492 1209.62 442.898 Q1208.1 444.304 1204.69 447.288 L1198.46 453.342 L1209.05 453.342 Q1214.21 453.342 1214.62 452.883 Q1215.19 452.051 1215.91 447.661 L1217.4 447.661 L1215.74 457.876 L1193.93 457.876 Z" fill="#ff7e00" fill-rule="evenodd" fill-opacity="1"></path><path clip-path="url(#clip350)" d="M1524.87 239.34 Q1524.87 237.824 1524.99 237.373 Q1525.15 236.922 1525.81 236.225 L1541.92 218.272 Q1550.73 208.352 1550.73 199.704 Q1550.73 194.088 1547.78 190.071 Q1544.87 186.054 1539.5 186.054 Q1535.81 186.054 1532.69 188.309 Q1529.58 190.563 1528.14 194.58 Q1528.39 194.498 1529.25 194.498 Q1531.34 194.498 1532.49 195.81 Q1533.68 197.121 1533.68 198.884 Q1533.68 201.138 1532.2 202.245 Q1530.77 203.311 1529.33 203.311 Q1528.76 203.311 1527.98 203.188 Q1527.24 203.065 1526.05 201.917 Q1524.87 200.728 1524.87 198.638 Q1524.87 192.776 1529.29 188.104 Q1533.76 183.431 1540.56 183.431 Q1548.27 183.431 1553.31 188.022 Q1558.39 192.571 1558.39 199.704 Q1558.39 202.204 1557.62 204.499 Q1556.88 206.754 1555.85 208.516 Q1554.87 210.279 1552.16 213.107 Q1549.46 215.935 1547.29 217.944 Q1545.11 219.952 1540.24 224.215 L1531.34 232.864 L1546.47 232.864 Q1553.84 232.864 1554.42 232.208 Q1555.24 231.019 1556.26 224.748 L1558.39 224.748 L1556.02 239.34 L1524.87 239.34 Z" fill="#fcbe6e" fill-rule="evenodd" fill-opacity="1"></path><path clip-path="url(#clip350)" d="M1613.53 207.205 Q1613.45 207.615 1613.29 208.352 Q1613.12 209.049 1612.38 211.263 Q1611.65 213.476 1610.66 215.73 Q1609.72 217.944 1607.88 221.059 Q1606.07 224.133 1603.86 226.92 Q1603.24 227.658 1603.12 228.109 Q1603.04 228.519 1603.04 229.872 Q1603.04 238.397 1605.62 238.397 Q1605.74 238.397 1605.95 238.397 Q1606.2 238.356 1606.81 238.152 Q1607.47 237.906 1608.04 237.537 Q1608.61 237.127 1609.27 236.307 Q1609.93 235.446 1610.34 234.299 Q1610.7 233.479 1611.44 233.479 Q1612.43 233.479 1612.43 234.299 Q1612.43 235.774 1610.38 238.029 Q1608.33 240.283 1605.38 240.283 Q1602.55 240.283 1600.54 238.438 Q1598.57 236.553 1597.75 233.192 Q1588.9 240.283 1580.04 240.283 Q1573.81 240.283 1570.12 236.225 Q1566.44 232.126 1566.44 226.06 Q1566.44 220.239 1569.63 214.706 Q1572.87 209.172 1578.12 205.729 Q1583.41 202.245 1589.02 202.245 Q1590.99 202.245 1592.87 202.778 Q1594.76 203.27 1596.64 204.54 Q1598.53 205.811 1599.92 207.737 Q1601.32 209.664 1602.18 212.697 Q1603.04 215.73 1603.04 219.542 L1603.04 224.748 Q1608.45 217.903 1611.28 208.106 Q1611.69 206.631 1611.93 206.467 Q1612.1 206.344 1612.51 206.344 Q1612.92 206.344 1613.16 206.59 Q1613.45 206.795 1613.49 207 L1613.53 207.205 M1597.42 231.019 Q1597.26 229.585 1597.26 221.633 Q1597.26 220.116 1597.26 219.296 Q1597.26 218.436 1597.18 216.796 Q1597.1 215.157 1596.93 214.132 Q1596.81 213.107 1596.52 211.631 Q1596.23 210.156 1595.82 209.213 Q1595.41 208.27 1594.76 207.205 Q1594.14 206.139 1593.32 205.524 Q1592.55 204.909 1591.4 204.499 Q1590.29 204.089 1588.94 204.089 Q1587.26 204.089 1585.5 204.704 Q1583.77 205.278 1581.56 207.123 Q1579.35 208.926 1577.5 211.795 Q1575.58 214.829 1574.1 220.403 Q1572.67 225.937 1572.67 229.257 Q1572.67 233.438 1574.59 235.938 Q1576.52 238.397 1580.21 238.397 Q1589.02 238.397 1597.42 231.019 Z" fill="#fcbe6e" fill-rule="evenodd" fill-opacity="1"></path><path clip-path="url(#clip350)" d="M1622.04 263.535 Q1622.04 262.474 1622.12 262.158 Q1622.24 261.842 1622.7 261.355 L1633.97 248.787 Q1640.14 241.844 1640.14 235.79 Q1640.14 231.859 1638.08 229.047 Q1636.04 226.235 1632.28 226.235 Q1629.7 226.235 1627.52 227.813 Q1625.34 229.391 1624.33 232.203 Q1624.5 232.146 1625.11 232.146 Q1626.57 232.146 1627.37 233.064 Q1628.21 233.982 1628.21 235.216 Q1628.21 236.794 1627.17 237.569 Q1626.17 238.315 1625.16 238.315 Q1624.76 238.315 1624.22 238.228 Q1623.7 238.142 1622.87 237.339 Q1622.04 236.507 1622.04 235.044 Q1622.04 230.941 1625.13 227.67 Q1628.26 224.399 1633.03 224.399 Q1638.42 224.399 1641.95 227.612 Q1645.51 230.797 1645.51 235.79 Q1645.51 237.54 1644.96 239.147 Q1644.44 240.725 1643.73 241.958 Q1643.04 243.192 1641.15 245.172 Q1639.25 247.152 1637.73 248.558 Q1636.21 249.964 1632.8 252.948 L1626.57 259.002 L1637.16 259.002 Q1642.32 259.002 1642.72 258.543 Q1643.3 257.711 1644.01 253.321 L1645.51 253.321 L1643.84 263.535 L1622.04 263.535 Z" fill="#fcbe6e" fill-rule="evenodd" fill-opacity="1"></path></svg>